<?xml version="1.0" encoding="UTF-8" standalone="no"?><!DOCTYPE svg PUBLIC "-//W3C//DTD SVG 1.1//EN" "http://www.w3.org/Graphics/SVG/1.1/DTD/svg11.dtd"><svg width="100%" height="100%" viewBox="0 0 83 180" version="1.1" xmlns="http://www.w3.org/2000/svg" xmlns:xlink="http://www.w3.org/1999/xlink" xml:space="preserve" xmlns:serif="http://www.serif.com/" style="fill-rule:evenodd;clip-rule:evenodd;"><g><path d="M64.222,37.972c2.083,0 4.167,-2.083 4.167,-4.167c0,-2.083 -2.083,-4.167 -4.167,-4.167c-2.083,0 -4.167,2.083 -4.167,4.167c0,2.083 2.083,4.167 4.167,4.167Z" style="fill:#020202;fill-rule:nonzero;stroke:#000;stroke-width:0.63px;"/><path d="M70.472,23.389c2.5,0 4.167,-1.667 4.167,-3.75c0,-2.5 -1.667,-4.167 -4.167,-4.167c-2.083,0 -3.75,1.667 -3.75,4.167c0,2.083 1.667,3.75 3.75,3.75Z" style="fill:#020202;fill-rule:nonzero;stroke:#000;stroke-width:0.63px;"/><path d="M77.139,9.222c2.083,0 3.75,-1.667 3.75,-4.167c0,-2.083 -1.667,-3.75 -3.75,-3.75c-2.5,0 -4.167,1.667 -4.167,3.75c0,2.5 1.667,4.167 4.167,4.167Z" style="fill:#020202;fill-rule:nonzero;stroke:#000;stroke-width:0.63px;"/><path d="M7.556,171.722c2.083,0 2.917,1.25 2.917,2.917l0,0.833c0,0.833 0,2.083 0.417,2.5l3.333,0c0,-0.417 -0.417,-1.25 -0.417,-1.667l0,-3.75c0,-1.25 -0.833,-2.083 -1.667,-2.5c1.25,-0.417 2.083,-2.083 2.083,-3.75c0,-2.5 -2.5,-4.583 -5.417,-4.583l-7.5,0l0,16.25l3.75,0l0,-12.917l3.333,0c1.25,0 2.083,0.833 2.083,1.667c0,1.25 -0.833,2.083 -2.083,2.083l-3.333,0l0,2.917l2.5,0Z" style="fill:#020202;fill-rule:nonzero;stroke:#000;stroke-width:0.63px;"/><path d="M59.639,56.306l0,6.667l-3.333,0l0,-16.25l11.667,0l0,3.333l-8.333,0l0,3.333l7.5,0l0,2.917l-7.5,0Z" style="fill:#020202;fill-rule:nonzero;stroke:#000;stroke-width:0.63px;"/></g></svg>