<?xml version="1.0" encoding="UTF-8" standalone="no"?><!DOCTYPE svg PUBLIC "-//W3C//DTD SVG 1.1//EN" "http://www.w3.org/Graphics/SVG/1.1/DTD/svg11.dtd"><svg width="100%" height="100%" viewBox="0 0 73 83" version="1.1" xmlns="http://www.w3.org/2000/svg" xmlns:xlink="http://www.w3.org/1999/xlink" xml:space="preserve" xmlns:serif="http://www.serif.com/" style="fill-rule:evenodd;clip-rule:evenodd;"><g><g><path d="M62.541,2.446c3.75,-2.083 6.25,-0.833 7.083,0c1.25,0.833 2.5,2.917 0.833,7.083l-5.417,12.917c-1.25,2.917 -3.333,4.583 -5.417,4.583c-2.5,0.417 -4.583,-1.25 -6.25,-3.75l-2.083,-3.333c-1.25,-2.083 -1.667,-5 -0.833,-7.5c0.833,-2.5 2.083,-4.583 4.583,-5.833l7.5,-4.167Z" style="fill:#020202;stroke:#000;stroke-width:0.63px;"/><path d="M62.541,4.112c3.333,-1.667 4.583,-0.417 3.333,2.917l-5.417,12.917c-1.667,3.333 -4.167,3.333 -5.833,0.417l-2.083,-3.333c-1.667,-2.917 -0.833,-7.083 2.5,-8.75l7.5,-4.167Z" style="fill:#020202;stroke:#000;stroke-width:0.63px;"/></g><g><path d="M34.208,7.446c4.167,-2.083 6.25,-0.833 7.5,0c0.833,1.25 2.5,3.333 0.833,7.5l-5.833,14.167c-1.25,2.917 -3.75,5 -6.25,5c-2.5,0 -4.583,-1.25 -6.25,-4.167l-2.083,-3.333c-1.667,-2.5 -2.083,-5.417 -1.25,-7.917c0.833,-2.917 2.5,-5 5,-6.667l8.333,-4.583Z" style="fill:#020202;stroke:#000;stroke-width:0.63px;"/><path d="M34.208,9.112c3.333,-1.667 4.583,-0.417 3.333,3.333l-6.25,14.167c-1.25,3.333 -4.167,3.333 -5.833,0.417l-2.5,-3.75c-1.667,-3.333 -0.417,-7.5 2.917,-9.583l8.333,-4.583Z" style="fill:#020202;stroke:#000;stroke-width:0.63px;"/></g><g><path d="M56.708,38.696c5,-2.917 8.333,-1.25 9.583,0c1.25,1.25 3.333,4.167 0.833,9.583l-6.25,15.833c-1.667,3.75 -4.583,5.833 -7.5,5.833c-3.333,0.417 -6.25,-1.25 -8.333,-5l-2.5,-3.75c-1.667,-2.917 -2.083,-6.667 -1.25,-10c0.833,-2.917 2.917,-5.833 6.25,-7.5l9.167,-5Z" style="fill:#020202;stroke:#000;stroke-width:0.63px;"/><path d="M56.708,41.196c3.75,-2.083 5.417,-0.417 3.75,3.333l-6.667,15.833c-1.667,4.167 -5,4.167 -7.083,0.417l-2.5,-3.75c-2.083,-3.75 -0.833,-8.75 2.917,-10.833l9.583,-5Z" style="fill:#020202;stroke:#000;stroke-width:0.63px;"/></g><g><path d="M19.208,44.529c6.25,-3.333 9.583,-1.25 11.25,0c1.667,1.667 3.75,5 1.25,11.25l-7.5,17.917c-2.083,4.167 -5,6.667 -8.75,7.083c-3.75,0.417 -7.083,-1.667 -9.583,-5.833l-2.5,-4.583c-2.083,-3.333 -2.5,-7.5 -1.667,-11.25c1.25,-3.75 3.333,-6.667 7.083,-8.75l10.417,-5.833Z" style="fill:#020202;stroke:#000;stroke-width:0.63px;"/><path d="M19.208,47.446c4.583,-2.083 6.25,-0.417 4.583,4.167l-7.5,17.917c-2.083,4.583 -5.833,5 -8.333,0.833l-2.5,-4.583c-2.5,-4.583 -1.25,-10 3.333,-12.5l10.417,-5.833Z" style="fill:#020202;stroke:#000;stroke-width:0.63px;"/></g></g></svg>