<?xml version="1.0" encoding="UTF-8" standalone="no"?><!DOCTYPE svg PUBLIC "-//W3C//DTD SVG 1.1//EN" "http://www.w3.org/Graphics/SVG/1.1/DTD/svg11.dtd"><svg width="100%" height="100%" viewBox="0 0 103 91" version="1.1" xmlns="http://www.w3.org/2000/svg" xmlns:xlink="http://www.w3.org/1999/xlink" xml:space="preserve" xmlns:serif="http://www.serif.com/" style="fill-rule:evenodd;clip-rule:evenodd;"><path d="M69.742,7.494c-25.833,-12.5 -55,-5.417 -65,15.417c-7.917,16.25 -1.667,36.25 13.75,50l0,-0.417l-2.083,-7.083c-10.833,-12.5 -14.583,-27.917 -8.333,-40.833c9.167,-18.75 35.833,-25 59.583,-13.333c24.167,11.667 35.833,36.25 27.083,55c-3.75,7.5 -10.417,13.333 -19.583,16.25c-12.083,4.583 -26.667,3.333 -40,-3.333c-2.083,-0.833 -4.167,-2.083 -5.833,-2.917l-7.083,0c3.333,2.5 7.083,4.583 10.833,6.667c14.583,7.083 30.417,8.333 43.333,3.333c10,-3.333 17.917,-10 21.667,-18.333c10,-20.833 -2.5,-47.917 -28.333,-60.417Z" style="fill:#020202;stroke:#000;stroke-width:0.63px;"/></svg>