<?xml version="1.0" encoding="UTF-8" standalone="no"?><!DOCTYPE svg PUBLIC "-//W3C//DTD SVG 1.1//EN" "http://www.w3.org/Graphics/SVG/1.1/DTD/svg11.dtd"><svg width="100%" height="100%" viewBox="0 0 43 49" version="1.1" xmlns="http://www.w3.org/2000/svg" xmlns:xlink="http://www.w3.org/1999/xlink" xml:space="preserve" xmlns:serif="http://www.serif.com/" style="fill-rule:evenodd;clip-rule:evenodd;stroke-linejoin:round;stroke-miterlimit:2;"><g><path d="M8.333,29.056l5.417,0l-8.333,19.167l-5.417,0l8.333,-19.167Z" style="fill-rule:nonzero;"/><path d="M29.583,41.556l-2.083,-12.5l-5.833,0l-8.333,19.167l5,0l5,-11.667l2.917,11.667l5.417,0l8.333,-19.167l-5,0l-5.417,12.5Z" style="fill-rule:nonzero;"/><path d="M42.083,2.806c-0.417,-1.25 -1.667,-2.083 -3.333,-2.5c-3.333,-0.833 -8.75,0 -13.75,2.917c-5,2.5 -9.167,6.25 -10,10c-0.417,1.25 -0.417,2.917 0,4.167c0.833,0.833 2.083,1.667 3.333,2.5c3.75,0.833 8.75,0 14.167,-2.917c7.5,-3.75 11.667,-10 9.583,-14.167Zm-3.333,2.917c-0.833,2.083 -3.333,5.417 -8.333,7.917c-4.583,2.5 -8.75,2.917 -10.833,2.5c-0.417,0 -0.833,-0.417 -1.25,-0.833l0,-1.25c0.833,-2.083 3.75,-5 8.333,-7.5c4.583,-2.5 9.167,-3.333 11.25,-2.5c0.417,0 0.833,0.417 0.833,0.833l0,0.833Z" style="fill-rule:nonzero;"/></g></svg>