<?xml version="1.0" encoding="UTF-8" standalone="no"?><!DOCTYPE svg PUBLIC "-//W3C//DTD SVG 1.1//EN" "http://www.w3.org/Graphics/SVG/1.1/DTD/svg11.dtd"><svg width="100%" height="100%" viewBox="0 0 43 25" version="1.1" xmlns="http://www.w3.org/2000/svg" xmlns:xlink="http://www.w3.org/1999/xlink" xml:space="preserve" xmlns:serif="http://www.serif.com/" style="fill-rule:evenodd;clip-rule:evenodd;stroke-linejoin:round;stroke-miterlimit:2;"><path d="M15.09,17.917c0.417,2.083 -0.833,3.333 -2.917,3.333c-3.333,0 -6.25,-2.917 -7.083,-6.25c-1.25,-3.75 0.417,-6.667 3.333,-6.667c2.083,0 4.167,1.25 5,2.917l4.167,0c-1.667,-4.167 -5.833,-6.667 -10.417,-6.667c-5.833,0 -8.333,4.583 -6.667,10.417c1.667,5.417 6.667,10 12.5,10c5,0 7.5,-2.917 6.667,-7.083l-4.583,0Z" style="fill-rule:nonzero;"/><path d="M32.174,24.583c5.833,0 7.917,-4.583 6.667,-9.583c-1.667,-5.417 -5.833,-10 -11.667,-10l-8.333,0l5.417,19.583l4.583,0l-4.167,-15.417l2.917,0c3.333,0 5.417,2.5 6.25,5.833c0.833,2.917 0,5.417 -2.917,5.833l-3.333,0l1.25,3.75l3.333,0Z" style="fill-rule:nonzero;"/><path d="M18.424,12.917c0,2.083 -1.25,3.75 -3.333,3.75c-2.917,0 -5.833,-2.917 -7.083,-6.667c-0.833,-3.333 0.417,-6.25 3.75,-6.25c2.083,0 3.75,0.833 4.583,2.917l4.583,0c-1.667,-4.583 -5.833,-6.667 -10.417,-6.667c-6.25,0 -8.333,4.583 -7.083,10c1.667,5.833 7.083,10.417 12.5,10.417c5,0 7.917,-2.917 7.083,-7.5l-4.583,0Z" style="fill-rule:nonzero;"/><path d="M35.507,20c5.417,0 7.917,-5 6.25,-10c-1.25,-5.417 -5.833,-9.583 -11.25,-9.583l-8.333,0l5.417,19.583l4.167,0l-4.167,-15.833l3.333,0c3.333,0 5.417,2.917 6.25,5.833c0.833,3.333 0,5.833 -2.917,5.833l-3.333,0l0.833,4.167l3.75,0Z" style="fill-rule:nonzero;"/></svg>