<?xml version="1.0" encoding="UTF-8" standalone="no"?><!DOCTYPE svg PUBLIC "-//W3C//DTD SVG 1.1//EN" "http://www.w3.org/Graphics/SVG/1.1/DTD/svg11.dtd"><svg width="100%" height="100%" viewBox="0 0 111 89" version="1.1" xmlns="http://www.w3.org/2000/svg" xmlns:xlink="http://www.w3.org/1999/xlink" xml:space="preserve" xmlns:serif="http://www.serif.com/" style="fill-rule:evenodd;clip-rule:evenodd;"><path d="M1.306,16.306c25.833,30.833 53.75,50.417 93.75,70.417l14.167,0c-46.25,-22.5 -77.083,-47.083 -107.917,-85.417l0,15Z" style="fill:#020202;stroke:#000;stroke-width:0.63px;"/><path d="M1.306,73.806l0,12.917l25,0c-8.333,-3.75 -16.667,-8.333 -25,-12.917Z" style="fill:#020202;stroke:#000;stroke-width:0.63px;"/><path d="M50.056,75.889c-0.417,1.25 -0.833,4.583 -2.917,5.833c3.333,1.667 6.25,3.333 9.583,5l13.333,0c-5.833,-2.917 -14.583,-7.917 -20,-10.833Z" style="fill:#020202;stroke:#000;stroke-width:0.63px;"/><path d="M16.306,53.806c-5,-3.75 -10.417,-8.333 -15,-12.5l0,9.583c2.5,1.667 8.333,6.667 10.833,8.75c0.417,-2.083 2.083,-4.583 4.167,-5.833Z" style="fill:#020202;stroke:#000;stroke-width:0.63px;"/></svg>