<?xml version="1.0" encoding="UTF-8" standalone="no"?><!DOCTYPE svg PUBLIC "-//W3C//DTD SVG 1.1//EN" "http://www.w3.org/Graphics/SVG/1.1/DTD/svg11.dtd"><svg width="100%" height="100%" viewBox="0 0 33 31" version="1.1" xmlns="http://www.w3.org/2000/svg" xmlns:xlink="http://www.w3.org/1999/xlink" xml:space="preserve" xmlns:serif="http://www.serif.com/" style="fill-rule:evenodd;clip-rule:evenodd;"><path d="M12.911,18.916c-2.917,-2.5 -3.75,-5.833 -2.083,-8.333c2.083,-2.5 5.833,-2.5 8.75,0c2.917,2.083 3.75,5.833 2.083,7.917c-2.083,2.5 -5.833,2.5 -8.75,0.417Z" style="fill:#020202;stroke:#000;stroke-width:0.63px;"/><path d="M23.744,5.166c-7.083,-5.417 -16.25,-5 -20.417,0.417c-4.167,5.833 -1.667,14.583 5.417,19.583c6.667,5.417 15.833,5 20,-0.417c4.167,-5.417 2.083,-14.167 -5,-19.583Zm1.667,17.083c-2.917,4.167 -10,4.167 -15,0.417c-5,-4.167 -7.083,-10.833 -3.75,-15c2.917,-3.75 10,-4.167 15,0c5.417,3.75 7.083,10.417 3.75,14.583Z" style="fill:#020202;stroke:#000;stroke-width:0.63px;"/></svg>