<?xml version="1.0" encoding="UTF-8" standalone="no"?><!DOCTYPE svg PUBLIC "-//W3C//DTD SVG 1.1//EN" "http://www.w3.org/Graphics/SVG/1.1/DTD/svg11.dtd"><svg width="100%" height="100%" viewBox="0 0 53 69" version="1.1" xmlns="http://www.w3.org/2000/svg" xmlns:xlink="http://www.w3.org/1999/xlink" xml:space="preserve" xmlns:serif="http://www.serif.com/" style="fill-rule:evenodd;clip-rule:evenodd;stroke-linejoin:round;stroke-miterlimit:2;"><path d="M51.791,35.173c0,0.417 -0.417,-0.417 -0.417,-0.833l-0.833,-1.667l0,-12.5l-0.833,-2.917l0,-0.417l-8.333,-10c0,-0.417 -0.417,-0.833 -0.833,-0.833l-2.083,-0.417c-0.417,-0.417 -0.833,-0.417 -0.833,0l-7.083,2.083l-0.833,-0.417l-4.583,-5.417c-0.417,-0.417 -0.833,-0.833 -1.667,-0.833c-1.25,0 -2.083,1.25 -2.917,3.333c0,0 -0.417,0 -0.417,0.417c-2.083,-2.5 -3.333,-4.167 -3.333,-4.167c-0.417,-0.417 -0.833,-0.833 -1.667,-0.417c-1.25,0 -2.083,0.833 -3.333,2.917l-10.833,25c-0.417,0.833 -1.667,4.167 -0.417,5.417l26.25,33.75c0.417,0.417 1.25,0.833 2.083,0.833c0.833,0 1.667,-0.833 2.083,-1.667l3.75,1.25l0.833,0.417c0.417,0.833 0.833,0.833 1.667,0.833c1.25,0 2.083,-1.25 2.917,-2.917l11.25,-25c0.417,-0.833 1.667,-4.167 0.417,-5.833Zm-28.333,-29.583l0,-0.417c1.667,2.083 3.75,5 3.75,5c0.417,0 0.417,0.417 0.833,0.417l2.083,0.417l0.833,0l7.083,-2.083l1.25,0.417l7.5,9.167l0.417,2.083l0,12.917l0.833,2.083l0,0.417l0.417,0.833l-4.583,2.5l0,-2.083c0,-0.833 0.417,-2.083 -0.417,-2.917c0,0 -13.333,-16.667 -20.833,-26.667c0.417,-1.25 0.833,-2.083 0.833,-2.083Zm5,57.917c-4.583,-5.833 -22.917,-29.167 -25,-31.667c0,-0.417 0,-1.25 0.417,-2.083c0,-0.417 11.25,-25.417 11.25,-25.417c0.833,0.833 2.083,2.083 3.333,4.167l2.5,2.917c7.083,9.167 17.917,22.5 19.583,24.583l0,0.833l-0.417,0l0,0.417c0,0.417 0,0.833 -0.417,1.25c0,0 -5.417,12.5 -8.75,20l-2.5,5Zm8.75,0.833c0,0.278 -0.139,0.417 -0.417,0.417l-0.417,-0.417l-3.75,-1.25c1.667,-3.75 5.833,-13.333 8.333,-18.75l0,0.833l2.5,-1.25l3.75,-2.5c-2.5,6.25 -10,22.917 -10,22.917Z" style="fill-rule:nonzero;"/></svg>