<?xml version="1.0" encoding="UTF-8" standalone="no"?><!DOCTYPE svg PUBLIC "-//W3C//DTD SVG 1.1//EN" "http://www.w3.org/Graphics/SVG/1.1/DTD/svg11.dtd"><svg width="100%" height="100%" viewBox="0 0 267 81" version="1.1" xmlns="http://www.w3.org/2000/svg" xmlns:xlink="http://www.w3.org/1999/xlink" xml:space="preserve" xmlns:serif="http://www.serif.com/" style="fill-rule:evenodd;clip-rule:evenodd;"><g><path d="M232.139,41.25l16.25,0l1.25,-2.917l-16.25,0l-1.25,2.917Z" style="fill-rule:nonzero;"/><path d="M1.306,41.25l20.417,0l1.25,-2.917l-20.417,0l-1.25,2.917Z" style="fill:#020202;fill-rule:nonzero;stroke:#000;stroke-width:0.63px;"/><path d="M266.722,0l-17.5,0l-1.25,2.917l14.167,0l-5.833,13.333l3.333,0l6.667,-15l0.417,-1.25Z" style="fill-rule:nonzero;"/><path d="M228.806,77.5l-41.667,0l-1.25,2.917l45,0l0.833,-1.25l6.25,-15l-3.333,0l-5.833,13.333Z" style="fill-rule:nonzero;"/><g><g><path d="M62.139,0l-0.417,1.25l-6.667,15l3.75,0l5.833,-13.333l100,0l1.25,-2.917l-103.75,0Z" style="fill-rule:nonzero;"/><path d="M37.556,64.167l-3.75,0l-6.667,15l-0.417,1.25l101.25,0l1.25,-2.917l-97.5,0l5.833,-13.333Z" style="fill-rule:nonzero;"/></g><g><path d="M71.722,16.25l3.75,-8.333l-3.75,0l-3.333,8.333l3.333,0Z" style="fill-rule:nonzero;"/><path d="M80.472,16.25l3.75,-8.333l-3.333,0l-3.75,8.333l3.333,0Z" style="fill-rule:nonzero;"/><path d="M89.639,16.25l3.333,-8.333l-3.333,0l-3.75,8.333l3.75,0Z" style="fill-rule:nonzero;"/><path d="M98.389,16.25l3.333,-8.333l-3.333,0l-3.75,8.333l3.75,0Z" style="fill-rule:nonzero;"/><path d="M107.139,16.25l3.75,-8.333l-3.75,0l-3.333,8.333l3.333,0Z" style="fill-rule:nonzero;"/><path d="M115.889,16.25l3.75,-8.333l-3.75,0l-3.333,8.333l3.333,0Z" style="fill-rule:nonzero;"/></g><g><path d="M47.139,72.917l3.75,-8.333l-3.333,0l-3.75,8.333l3.333,0Z" style="fill-rule:nonzero;"/><path d="M56.306,72.917l3.333,-8.333l-3.333,0l-3.75,8.333l3.75,0Z" style="fill-rule:nonzero;"/><path d="M65.056,72.917l3.75,-8.333l-3.75,0l-3.75,8.333l3.75,0Z" style="fill-rule:nonzero;"/><path d="M73.806,72.917l3.75,-8.333l-3.75,0l-3.333,8.333l3.333,0Z" style="fill-rule:nonzero;"/><path d="M82.556,72.917l3.75,-8.333l-3.75,0l-3.333,8.333l3.333,0Z" style="fill-rule:nonzero;"/><path d="M91.306,72.917l3.75,-8.333l-3.333,0l-3.75,8.333l3.333,0Z" style="fill-rule:nonzero;"/><path d="M100.472,72.917l3.333,-8.333l-3.333,0l-3.75,8.333l3.75,0Z" style="fill-rule:nonzero;"/><path d="M109.222,72.917l3.75,-8.333l-3.75,0l-3.75,8.333l3.75,0Z" style="fill-rule:nonzero;"/><path d="M117.972,72.917l3.75,-8.333l-3.75,0l-3.333,8.333l3.333,0Z" style="fill-rule:nonzero;"/></g></g></g></svg>