<?xml version="1.0" encoding="UTF-8" standalone="no"?>
<!DOCTYPE svg PUBLIC "-//W3C//DTD SVG 1.1//EN" "http://www.w3.org/Graphics/SVG/1.1/DTD/svg11.dtd">
<svg width="100%" height="100%" viewBox="0 0 16 5" version="1.1" xmlns="http://www.w3.org/2000/svg" xmlns:xlink="http://www.w3.org/1999/xlink" xml:space="preserve" xmlns:serif="http://www.serif.com/" style="fill-rule:evenodd;clip-rule:evenodd;stroke-linejoin:round;stroke-miterlimit:2;">
    <g transform="matrix(1,0,0,1,-195.7,-197.2)">
        <g>
            <path d="M198.6,202L201.2,198.9L199.8,202L200.7,202L202.8,197.3L201.4,197.3L198.9,200.4L199.1,197.3L197.8,197.3L195.7,202L196.6,202L198,198.9L197.8,202L198.6,202Z" style="fill-rule:nonzero;"/>
            <path d="M210.5,199.5C210.8,199.7 210.9,200.1 210.7,200.5C210.3,201.6 209.1,202.2 207.9,202.2C206.7,202.2 206.3,201.5 206.7,200.6L207.6,200.6C207.4,201 207.8,201.2 208.3,201.2C208.9,201.2 209.5,201 209.6,200.6C209.8,200.2 209.4,200.1 208.9,200.1L208.5,200.1L208.9,199.1L209.3,199.1C209.8,199.1 210.2,198.9 210.3,198.7C210.5,198.3 210.3,198.1 209.7,198.1C209.3,198.1 208.8,198.3 208.6,198.7L207.6,198.7C208,197.9 209,197.2 210.1,197.2C211.3,197.2 211.7,197.8 211.4,198.6C211.2,198.9 210.9,199.3 210.5,199.5Z" style="fill-rule:nonzero;"/>
            <path d="M205.9,197.3C206.8,197.3 207.2,198 206.8,198.9C206.4,199.9 205.4,200.5 204.5,200.5L203.5,200.5L203.9,199.5L204.9,199.5C205.3,199.5 205.7,199.2 205.8,198.9C206,198.6 205.8,198.3 205.5,198.3L204.5,198.3L202.9,202L201.8,202L203.9,197.3L205.9,197.3Z" style="fill-rule:nonzero;"/>
        </g>
    </g>
</svg>
