<?xml version="1.0" encoding="UTF-8" standalone="no"?><!DOCTYPE svg PUBLIC "-//W3C//DTD SVG 1.1//EN" "http://www.w3.org/Graphics/SVG/1.1/DTD/svg11.dtd"><svg width="100%" height="100%" viewBox="0 0 60 71" version="1.1" xmlns="http://www.w3.org/2000/svg" xmlns:xlink="http://www.w3.org/1999/xlink" xml:space="preserve" xmlns:serif="http://www.serif.com/" style="fill-rule:evenodd;clip-rule:evenodd;stroke-linejoin:round;stroke-miterlimit:2;"><g><path d="M17.35,43.075c-1.25,1.25 -3.333,2.5 -5.417,3.75c0.417,0.417 0.833,0.833 1.25,1.667c0.417,0.417 1.25,1.25 1.667,1.667l2.917,-6.667l-0.417,-0.417Z" style="fill-rule:nonzero;"/><path d="M39.434,19.742c0.417,0.833 1.25,1.667 1.667,2.083c1.25,-0.417 2.5,-0.833 4.167,-0.833c-2.5,-3.333 -5.417,-6.25 -7.917,-8.75c1.25,2.917 2.083,5 2.083,7.5Z" style="fill-rule:nonzero;"/><path d="M51.1,39.325c2.5,8.333 2.083,15.833 -2.083,19.167c-3.333,2.5 -8.333,2.5 -13.333,0c0,0.417 -0.417,0.417 -0.417,0.417c-0.833,2.5 -2.5,4.583 -4.583,5.833c9.167,5.833 18.333,7.5 23.75,3.333c6.667,-5.417 6.25,-18.333 0,-31.667c-0.833,0.833 -2.083,2.083 -3.333,2.917Z" style="fill-rule:nonzero;"/><path d="M2.767,28.909c1.667,-0.833 4.167,-1.667 6.25,-2.083c-2.083,-7.917 -1.25,-14.583 2.5,-17.5c2.5,-2.083 5.833,-2.5 10,-1.667l1.25,-3.333l0.833,-1.667c-7.5,-3.333 -14.167,-3.75 -18.75,0c-5.833,4.583 -6.25,14.583 -2.083,26.25Z" style="fill-rule:nonzero;"/></g></svg>