<?xml version="1.0" encoding="UTF-8" standalone="no"?><!DOCTYPE svg PUBLIC "-//W3C//DTD SVG 1.1//EN" "http://www.w3.org/Graphics/SVG/1.1/DTD/svg11.dtd"><svg width="100%" height="100%" viewBox="0 0 38 39" version="1.1" xmlns="http://www.w3.org/2000/svg" xmlns:xlink="http://www.w3.org/1999/xlink" xml:space="preserve" xmlns:serif="http://www.serif.com/" style="fill-rule:evenodd;clip-rule:evenodd;stroke-linejoin:round;stroke-miterlimit:2;"><path d="M34.429,6.25c-0.833,-1.25 -1.25,-2.5 -1.25,-5.833l-0.417,0l0.417,-0.417l-2.917,0.417l-11.25,25.417c-2.083,-1.25 -6.667,-0.833 -11.25,1.25c-5.417,2.917 -8.75,7.083 -7.5,9.583c1.25,2.5 6.667,2.5 12.083,-0.417c4.167,-2.083 7.083,-5 7.917,-7.5l10,-22.5c0.833,2.083 2.083,3.75 2.5,5.417c0.417,3.75 -0.833,9.167 -5.833,12.083c0,0 7.5,-0.833 9.583,-6.667c1.667,-3.333 1.25,-6.25 -2.083,-10.833Z" style="fill-rule:nonzero;"/></svg>