<?xml version="1.0" encoding="UTF-8" standalone="no"?><!DOCTYPE svg PUBLIC "-//W3C//DTD SVG 1.1//EN" "http://www.w3.org/Graphics/SVG/1.1/DTD/svg11.dtd"><svg width="100%" height="100%" viewBox="0 0 56 20" version="1.1" xmlns="http://www.w3.org/2000/svg" xmlns:xlink="http://www.w3.org/1999/xlink" xml:space="preserve" xmlns:serif="http://www.serif.com/" style="fill-rule:evenodd;clip-rule:evenodd;"><g><path d="M8.389,1.722c3.333,0 5.833,2.5 5.833,5.417c0,3.333 -2.5,5.417 -5.833,5.417l-3.333,0l0,-3.333l3.333,0c1.25,0 2.083,-0.833 2.083,-2.083c0,-1.25 -0.833,-2.083 -2.083,-2.083l-3.333,0l0,12.917l-3.75,0l0,-16.25l7.083,0Z" style="fill:#020202;fill-rule:nonzero;stroke:#000;stroke-width:0.63px;"/><path d="M24.639,1.306c4.583,0 7.917,3.75 7.917,8.333c0,5 -3.333,8.75 -7.917,8.75l0,-3.333c2.5,0 4.167,-2.5 4.167,-5.417c0,-2.917 -1.667,-5 -4.167,-5c-2.917,0 -4.583,2.083 -4.583,5c0,2.917 1.667,5.417 4.583,5.417l0,3.333c-5,0 -8.333,-3.75 -8.333,-8.75c0,-4.583 3.333,-8.333 8.333,-8.333Z" style="fill:#020202;fill-rule:nonzero;stroke:#000;stroke-width:0.63px;"/><path d="M47.972,5.889c-0.833,-2.917 -2.917,-4.583 -6.667,-4.583c-4.167,0 -6.25,2.083 -6.25,4.583c0,3.75 1.25,4.167 5.833,5.417c2.083,0.833 3.333,0.833 3.333,2.083c0,1.25 -1.25,2.083 -2.917,1.667c-1.667,0 -2.917,-0.417 -3.333,-1.667l-3.75,0c0.417,3.333 3.333,5 7.083,5c3.75,0 6.667,-1.667 6.667,-5c0,-4.167 -2.5,-4.583 -5.833,-5.417c-1.667,-0.417 -3.333,-0.833 -3.333,-1.667c0,-1.25 0.417,-1.667 2.5,-1.667c1.667,0 2.5,0.417 2.917,1.25l3.75,0Z" style="fill:#020202;fill-rule:nonzero;stroke:#000;stroke-width:0.63px;"/><rect x="50.889" y="1.722" width="3.75" height="16.25" style="fill:#020202;fill-rule:nonzero;stroke:#000;stroke-width:0.63px;"/></g></svg>