<?xml version="1.0" encoding="UTF-8" standalone="no"?><!DOCTYPE svg PUBLIC "-//W3C//DTD SVG 1.1//EN" "http://www.w3.org/Graphics/SVG/1.1/DTD/svg11.dtd"><svg width="100%" height="100%" viewBox="0 0 366 320" version="1.1" xmlns="http://www.w3.org/2000/svg" xmlns:xlink="http://www.w3.org/1999/xlink" xml:space="preserve" xmlns:serif="http://www.serif.com/" style="fill-rule:evenodd;clip-rule:evenodd;"><g><path d="M284.639,26.306l15.833,-17.5c-3.75,-2.5 -7.5,-5 -11.667,-7.5l-4.583,0l-12.5,17.083c4.583,2.5 8.75,5.417 12.917,7.917Z" style="fill:#020202;stroke:#000;stroke-width:0.63px;"/><path d="M47.139,12.972l-5,-11.667l-14.583,0l10.417,18.75c2.917,-2.5 5.833,-4.583 9.167,-7.083Z" style="fill:#020202;stroke:#000;stroke-width:0.63px;"/><path d="M135.889,305.472l0.417,12.083c0.417,0 0.833,0.417 1.25,0.417l15.833,0l-1.667,-7.083c-5,-1.667 -10.417,-3.333 -15.833,-5.417Z" style="fill:#020202;stroke:#000;stroke-width:0.63px;"/><path d="M2.139,27.139l12.917,16.667c2.083,-2.917 4.583,-5.833 7.083,-8.75l-11.667,-17.917c-2.917,3.333 -5.833,6.667 -8.333,10Z" style="fill:#020202;stroke:#000;stroke-width:0.63px;"/><path d="M13.806,13.389l11.667,17.917c2.5,-2.917 5.417,-5.417 8.333,-7.917l-10.417,-19.167c-3.333,2.917 -6.667,5.833 -9.583,9.167Z" style="fill:#020202;stroke:#000;stroke-width:0.63px;"/><path d="M15.056,208.806c-2.5,-4.167 -4.583,-8.333 -6.667,-12.083l-7.083,-0.417l0,12.5c0,0.417 0.417,0.833 0.417,1.25l13.333,-1.25Z" style="fill:#020202;stroke:#000;stroke-width:0.63px;"/><path d="M267.139,15.889l10.833,-14.583l-20,0l-4.167,7.083c4.583,2.5 9.167,5 13.333,7.5Z" style="fill:#020202;stroke:#000;stroke-width:0.63px;"/><path d="M252.139,1.306l-15,0c4.167,1.667 7.917,3.333 12.083,5l2.917,-5Z" style="fill:#020202;stroke:#000;stroke-width:0.63px;"/><path d="M333.389,70.056c0.833,1.25 1.667,2.5 2.5,3.333l20.833,0l7.083,-3.75c-2.917,-4.583 -6.667,-8.75 -10,-13.333l-20.417,13.75Z" style="fill:#020202;stroke:#000;stroke-width:0.63px;"/><path d="M66.722,1.722c0,0 0.417,-0.417 0.833,-0.417l-1.25,0l0.417,0.417Z" style="fill:#020202;stroke:#000;stroke-width:0.63px;"/><path d="M5.889,57.556c2.083,-3.333 3.75,-6.25 5.833,-9.167l-10.417,-14.167l0,17.917l4.583,5.417Z" style="fill:#020202;stroke:#000;stroke-width:0.63px;"/><path d="M62.139,4.222l-1.25,-2.917l-13.333,0l3.75,8.75c3.75,-2.083 7.083,-4.167 10.833,-5.833Z" style="fill:#020202;stroke:#000;stroke-width:0.63px;"/><path d="M168.806,315.056c-3.75,-0.833 -7.5,-1.667 -11.667,-2.917l1.25,5.833l9.583,0l0.833,-2.917Z" style="fill:#020202;stroke:#000;stroke-width:0.63px;"/><path d="M1.306,180.472l0,10.417l4.583,0.417c-1.667,-3.333 -3.333,-7.083 -4.583,-10.833Z" style="fill:#020202;stroke:#000;stroke-width:0.63px;"/><path d="M2.139,64.639c0.417,-0.833 0.833,-1.667 1.25,-2.5l-2.083,-2.5l0,7.5c0,-0.833 0.417,-1.667 0.833,-2.5Z" style="fill:#020202;stroke:#000;stroke-width:0.63px;"/><path d="M40.056,241.722c-3.333,-3.75 -6.667,-7.5 -10,-11.667l-12.083,2.917c3.75,5 7.5,9.583 11.667,13.75l10.417,-5Z" style="fill:#020202;stroke:#000;stroke-width:0.63px;"/><path d="M46.722,263.806l8.75,-6.667c-4.167,-3.75 -7.917,-7.5 -11.667,-11.25l-10.417,5c4.167,4.167 8.75,8.75 13.333,12.917Z" style="fill:#020202;stroke:#000;stroke-width:0.63px;"/><path d="M14.639,228.806l12.083,-3.333c-2.917,-3.75 -5.833,-7.917 -8.333,-12.083l-13.75,1.25c3.333,5 6.667,9.583 10,14.167Z" style="fill:#020202;stroke:#000;stroke-width:0.63px;"/><path d="M72.556,270.889c-4.583,-3.333 -8.75,-6.667 -12.917,-10.417l-9.167,6.667c5,4.167 10,8.333 15.417,12.083l6.667,-8.333Z" style="fill:#020202;stroke:#000;stroke-width:0.63px;"/><path d="M130.889,303.389c-5,-2.083 -10.417,-4.167 -15.417,-6.667l-2.5,10.833c5.833,2.917 12.083,5.417 17.917,7.917l0,-12.083Z" style="fill:#020202;stroke:#000;stroke-width:0.63px;"/><path d="M110.472,294.639c-5,-2.917 -10,-5.417 -15,-8.333l-4.583,9.583c5.417,3.333 11.25,6.667 17.5,9.583l2.083,-10.833Z" style="fill:#020202;stroke:#000;stroke-width:0.63px;"/><path d="M90.889,283.389c-4.583,-2.917 -9.583,-5.833 -14.167,-9.167l-6.667,8.333c5,3.75 10.833,7.5 16.25,10.833l4.583,-10Z" style="fill:#020202;stroke:#000;stroke-width:0.63px;"/><path d="M288.806,29.222c4.167,3.333 8.333,6.25 12.5,9.583l17.5,-16.667c-4.583,-3.75 -9.167,-7.083 -14.167,-10.417l-15.833,17.5Z" style="fill:#020202;stroke:#000;stroke-width:0.63px;"/><path d="M305.056,41.722c3.75,3.333 7.5,6.667 11.25,10l19.167,-15c-4.167,-3.75 -8.333,-7.5 -12.917,-11.25l-17.5,16.25Z" style="fill:#020202;stroke:#000;stroke-width:0.63px;"/><path d="M338.806,40.472l-18.75,15c3.333,3.75 6.667,7.083 10,10.833l20.417,-13.75c-3.75,-4.167 -7.5,-8.333 -11.667,-12.083Z" style="fill:#020202;stroke:#000;stroke-width:0.63px;"/></g></svg>