<?xml version="1.0" encoding="UTF-8" standalone="no"?><!DOCTYPE svg PUBLIC "-//W3C//DTD SVG 1.1//EN" "http://www.w3.org/Graphics/SVG/1.1/DTD/svg11.dtd"><svg width="100%" height="100%" viewBox="0 0 134 117" version="1.1" xmlns="http://www.w3.org/2000/svg" xmlns:xlink="http://www.w3.org/1999/xlink" xml:space="preserve" xmlns:serif="http://www.serif.com/" style="fill-rule:evenodd;clip-rule:evenodd;"><g><path d="M33.389,97.324l-2.083,2.5c2.083,1.25 3.75,2.5 5.833,3.75l0.833,-3.333c-1.667,-1.25 -2.917,-2.083 -4.583,-2.917Z" style="fill:#020202;stroke:#000;stroke-width:0.63px;"/><path d="M8.389,74.824c0.833,1.25 1.667,2.917 2.917,4.583l4.167,-0.417c-0.833,-1.25 -1.667,-2.083 -2.083,-3.333l-5,-0.833Z" style="fill:#020202;stroke:#000;stroke-width:0.63px;"/><path d="M2.972,35.658l4.583,4.583c0,-1.667 0.833,-2.917 1.25,-4.167l-4.167,-5.417c-0.833,1.667 -1.25,3.333 -1.667,5Z" style="fill:#020202;stroke:#000;stroke-width:0.63px;"/><path d="M21.722,18.574l-2.5,-6.25c-1.667,1.25 -3.333,2.917 -5,4.167l3.333,5.833c1.25,-1.25 2.5,-2.5 4.167,-3.75Z" style="fill:#020202;stroke:#000;stroke-width:0.63px;"/><path d="M1.306,46.908l5,3.333l0,-4.167l-4.583,-4.583c-0.417,2.083 -0.417,3.75 -0.417,5.417Z" style="fill:#020202;stroke:#000;stroke-width:0.63px;"/><path d="M1.306,53.158c0.417,1.667 0.417,3.333 0.833,5l5,2.083c0,-1.25 -0.417,-2.5 -0.833,-3.75l-5,-3.333Z" style="fill:#020202;stroke:#000;stroke-width:0.63px;"/><path d="M3.806,64.408c0.417,1.667 1.25,2.917 1.667,4.583l5,0.833c-0.417,-1.25 -1.25,-2.083 -1.667,-3.333l-5,-2.083Z" style="fill:#020202;stroke:#000;stroke-width:0.63px;"/><path d="M29.222,93.991c-1.25,-0.833 -2.5,-2.083 -3.75,-3.333l-3.333,1.667c1.667,1.667 3.333,2.917 5,4.167l2.083,-2.5Z" style="fill:#020202;stroke:#000;stroke-width:0.63px;"/><path d="M7.139,25.658l4.167,5c0.833,-1.25 1.667,-2.917 2.5,-4.167l-3.333,-5.833c-1.25,1.667 -2.083,3.333 -3.333,5Z" style="fill:#020202;stroke:#000;stroke-width:0.63px;"/><path d="M21.722,86.908c-0.833,-0.833 -1.667,-2.083 -2.917,-3.333l-4.167,0.417c1.25,1.667 2.5,2.917 3.75,4.583l3.333,-1.667Z" style="fill:#020202;stroke:#000;stroke-width:0.63px;"/><path d="M87.139,114.408l-5,-4.167c-1.667,0.417 -3.75,0.417 -5.417,0.417l3.75,4.167c2.083,0 4.583,-0.417 6.667,-0.417Z" style="fill:#020202;stroke:#000;stroke-width:0.63px;"/><path d="M98.806,14.408c-2.5,-1.667 -5.417,-3.333 -8.333,-4.583l-3.75,5.833c2.5,1.25 5,2.917 7.5,4.167l4.583,-5.417Z" style="fill:#020202;stroke:#000;stroke-width:0.63px;"/><path d="M116.306,42.324c1.25,2.083 2.5,4.167 3.333,6.25l7.5,-2.5c-1.25,-2.5 -2.917,-5 -4.167,-7.5l-6.667,3.75Z" style="fill:#020202;stroke:#000;stroke-width:0.63px;"/><path d="M131.722,63.574l-7.917,1.667c0.417,2.083 0.417,4.167 0.417,6.25l7.5,-0.833c0.417,-2.5 0.417,-4.583 0,-7.083Z" style="fill:#020202;stroke:#000;stroke-width:0.63px;"/><path d="M121.722,53.574c0.417,2.083 1.25,4.167 1.667,6.25l7.5,-1.25c-0.417,-2.917 -1.25,-5.417 -2.083,-7.917l-7.083,2.917Z" style="fill:#020202;stroke:#000;stroke-width:0.63px;"/><path d="M117.139,91.491l7.083,1.667c1.25,-1.667 2.5,-3.75 3.333,-5.833l-7.917,-0.417c-0.833,1.667 -1.667,3.333 -2.5,4.583Z" style="fill:#020202;stroke:#000;stroke-width:0.63px;"/><path d="M131.306,76.074l-7.917,0.417c-0.417,1.667 -0.833,3.75 -1.25,5.417l7.5,0.833c0.833,-2.5 1.25,-4.583 1.667,-6.667Z" style="fill:#020202;stroke:#000;stroke-width:0.63px;"/><path d="M108.389,31.908c1.667,1.667 3.333,3.75 5,5.833l6.667,-3.333c-1.667,-2.5 -3.75,-5 -5.833,-7.083l-5.833,4.583Z" style="fill:#020202;stroke:#000;stroke-width:0.63px;"/><path d="M82.139,13.574l3.333,-5.833c-2.917,-1.25 -5.833,-2.5 -9.167,-3.333l-2.5,6.667c2.917,0.833 5.417,1.667 8.333,2.5Z" style="fill:#020202;stroke:#000;stroke-width:0.63px;"/><path d="M120.889,97.741l-7.5,-1.667c-1.25,1.25 -2.5,2.5 -3.75,3.333l6.667,2.5c1.667,-1.25 2.917,-2.917 4.583,-4.167Z" style="fill:#020202;stroke:#000;stroke-width:0.63px;"/><path d="M99.639,111.074l-5.833,-2.917c-1.667,0.417 -3.333,0.833 -5,1.25l5,3.75c2.083,-0.417 4.167,-1.25 5.833,-2.083Z" style="fill:#020202;stroke:#000;stroke-width:0.63px;"/><path d="M111.306,105.658l-6.667,-2.5c-1.667,0.833 -2.917,1.667 -4.583,2.5l5.833,2.917c1.667,-0.833 3.75,-1.667 5.417,-2.917Z" style="fill:#020202;stroke:#000;stroke-width:0.63px;"/><path d="M98.389,22.741c2.083,1.667 4.167,3.75 6.25,5.417l5.833,-4.583c-2.083,-2.083 -4.583,-4.167 -7.5,-6.25l-4.583,5.417Z" style="fill:#020202;stroke:#000;stroke-width:0.63px;"/><path d="M42.139,106.074c0.417,0 0.417,0.417 0.833,0.417c2.083,0.833 3.75,1.667 5.417,2.5l-0.833,-4.167c-1.25,-0.417 -2.5,-0.833 -3.75,-1.667c-0.417,0 -0.833,-0.417 -1.25,-0.417l-0.417,3.333Z" style="fill:#020202;stroke:#000;stroke-width:0.63px;"/><path d="M60.472,112.741l-2.083,-4.167c-1.667,-0.417 -3.333,-0.833 -5.417,-1.667l0.833,4.167c2.5,0.417 4.583,1.25 6.667,1.667Z" style="fill:#020202;stroke:#000;stroke-width:0.63px;"/><path d="M57.139,1.491c-2.917,-0.417 -5.833,0 -8.75,0l-0.417,7.083c2.5,-0.417 5.417,-0.417 7.917,-0.417l1.25,-6.667Z" style="fill:#020202;stroke:#000;stroke-width:0.63px;"/><path d="M42.972,2.324c-2.5,0.417 -5.417,1.25 -7.917,2.083l1.25,6.667c2.083,-0.833 4.583,-1.25 6.667,-1.667l0,-7.083Z" style="fill:#020202;stroke:#000;stroke-width:0.63px;"/><path d="M25.889,15.658c1.667,-0.833 3.75,-2.083 5.417,-2.917l-0.833,-6.667c-2.5,0.833 -4.583,2.083 -6.667,3.333l2.083,6.25Z" style="fill:#020202;stroke:#000;stroke-width:0.63px;"/><path d="M70.056,110.658c-2.083,-0.417 -3.75,-0.417 -5.417,-0.833l2.5,4.167c2.083,0.417 4.167,0.417 6.667,0.833l-3.75,-4.167Z" style="fill:#020202;stroke:#000;stroke-width:0.63px;"/><path d="M71.306,3.158c-2.917,-0.833 -5.833,-1.25 -9.167,-1.25l-1.25,6.667c2.5,0 5.417,0.417 7.917,1.25l2.5,-6.667Z" style="fill:#020202;stroke:#000;stroke-width:0.63px;"/></g></svg>