<?xml version="1.0" encoding="UTF-8" standalone="no"?><!DOCTYPE svg PUBLIC "-//W3C//DTD SVG 1.1//EN" "http://www.w3.org/Graphics/SVG/1.1/DTD/svg11.dtd"><svg width="100%" height="100%" viewBox="0 0 188 178" version="1.1" xmlns="http://www.w3.org/2000/svg" xmlns:xlink="http://www.w3.org/1999/xlink" xml:space="preserve" xmlns:serif="http://www.serif.com/" style="fill-rule:evenodd;clip-rule:evenodd;"><g><path d="M7.972,43.285c-1.25,2.5 -2.083,4.583 -2.917,7.083l7.083,6.25c0.833,-2.083 1.667,-4.583 2.5,-6.667c0.417,-0.833 0.833,-1.667 1.25,-2.5l-5.833,-7.917c-0.833,1.25 -1.667,2.5 -2.083,3.75Z" style="fill:#020202;stroke:#000;stroke-width:0.63px;"/><path d="M25.056,124.118l-6.25,0.417c2.5,3.75 5.833,7.5 9.167,11.25l5,-2.5c-2.917,-2.917 -5.417,-5.833 -7.917,-9.167Z" style="fill:#020202;stroke:#000;stroke-width:0.63px;"/><path d="M1.306,67.035l7.5,5c0.417,-3.333 0.833,-6.667 1.667,-9.583l-7.083,-6.667c-0.833,3.75 -1.667,7.5 -2.083,11.25Z" style="fill:#020202;stroke:#000;stroke-width:0.63px;"/><path d="M21.722,119.118c-2.083,-2.917 -3.75,-6.25 -5.417,-9.583l-7.083,-1.25c1.667,3.75 3.75,7.5 6.25,11.667l6.25,-0.833Z" style="fill:#020202;stroke:#000;stroke-width:0.63px;"/><path d="M3.389,90.785c0.833,3.75 2.083,7.917 3.333,11.667l7.5,1.25c-1.667,-3.333 -2.5,-6.25 -3.333,-9.583l-7.5,-3.333Z" style="fill:#020202;stroke:#000;stroke-width:0.63px;"/><path d="M95.472,12.451c4.583,0.417 9.583,1.25 14.167,2.5l3.75,-10c-5.417,-1.667 -10.833,-2.5 -16.25,-2.917l-1.667,10.417Z" style="fill:#020202;stroke:#000;stroke-width:0.63px;"/><path d="M2.139,84.535l7.5,3.333c-0.417,-3.333 -0.833,-6.667 -0.833,-10l-7.5,-5c0,4.167 0,7.917 0.833,11.667Z" style="fill:#020202;stroke:#000;stroke-width:0.63px;"/><path d="M62.139,156.201c-4.167,-2.083 -7.917,-4.583 -11.667,-7.083l-3.333,3.75c4.583,2.917 9.167,5.833 13.75,8.333l1.25,-5Z" style="fill:#020202;stroke:#000;stroke-width:0.63px;"/><path d="M46.306,145.785c-3.333,-2.5 -6.667,-5.417 -10,-8.333l-4.583,2.083c3.333,3.75 7.5,7.083 11.667,10.417l2.917,-4.167Z" style="fill:#020202;stroke:#000;stroke-width:0.63px;"/><path d="M12.972,34.951l5.833,7.917c2.083,-2.917 4.167,-5.417 6.667,-8.333l-5,-8.75c-2.917,2.917 -5.417,5.833 -7.5,9.167Z" style="fill:#020202;stroke:#000;stroke-width:0.63px;"/><path d="M128.806,21.618l5.417,-9.583c-5,-2.5 -10.417,-4.167 -15.833,-5.833l-3.75,10c4.583,1.667 9.167,3.333 14.167,5.417Z" style="fill:#020202;stroke:#000;stroke-width:0.63px;"/><path d="M97.972,168.701c-4.167,-0.833 -8.75,-1.667 -12.917,-2.917l1.25,5.833c5,1.667 10,2.5 15,3.333l-3.333,-6.25Z" style="fill:#020202;stroke:#000;stroke-width:0.63px;"/><path d="M58.389,15.368c4.167,-1.25 8.333,-2.083 12.917,-2.917l0,-10.417c-5,0.417 -10,1.667 -14.583,2.917l1.667,10.417Z" style="fill:#020202;stroke:#000;stroke-width:0.63px;"/><path d="M76.306,12.035c4.583,-0.417 9.167,-0.417 13.75,0l2.083,-10.417c-5.417,-0.417 -10.417,-0.417 -15.833,0l0,10.417Z" style="fill:#020202;stroke:#000;stroke-width:0.63px;"/><path d="M107.556,175.785c5,0.833 10,0.833 15,0.833l-5.833,-6.25c-4.167,0 -8.333,-0.417 -12.5,-0.833l3.333,6.25Z" style="fill:#020202;stroke:#000;stroke-width:0.63px;"/><path d="M146.306,31.201l7.5,-8.75c-4.583,-2.917 -9.583,-5.833 -14.583,-8.333l-5.833,9.583c4.583,2.083 8.75,4.583 12.917,7.5Z" style="fill:#020202;stroke:#000;stroke-width:0.63px;"/><path d="M133.389,175.785l2.917,-6.667l-0.833,-0.833c-4.167,0.833 -7.917,1.667 -12.083,1.667l5.833,6.25c1.25,0 2.917,-0.417 4.167,-0.417Z" style="fill:#020202;stroke:#000;stroke-width:0.63px;"/><path d="M150.472,33.701c4.167,3.333 7.917,6.25 11.25,9.583l9.167,-7.083c-4.167,-3.75 -8.333,-7.5 -12.917,-10.833l-7.5,8.333Z" style="fill:#020202;stroke:#000;stroke-width:0.63px;"/><path d="M165.472,47.035c3.333,3.333 6.667,7.083 9.167,10.833l10.417,-5.833c-3.333,-4.167 -6.667,-8.333 -10.417,-12.5l-9.167,7.5Z" style="fill:#020202;stroke:#000;stroke-width:0.63px;"/><path d="M181.306,67.868l4.583,-10.833l-8.333,5c1.25,2.083 2.5,3.75 3.75,5.833Z" style="fill:#020202;stroke:#000;stroke-width:0.63px;"/><path d="M24.222,22.035l5,9.167c2.5,-2.5 5.833,-5 8.75,-7.083l-3.333,-9.583c-3.75,2.083 -7.083,4.583 -10.417,7.5Z" style="fill:#020202;stroke:#000;stroke-width:0.63px;"/><path d="M39.222,11.618l3.333,10c3.333,-1.667 7.083,-3.333 10.833,-5l-1.667,-10.417c-4.167,1.667 -8.75,3.333 -12.5,5.417Z" style="fill:#020202;stroke:#000;stroke-width:0.63px;"/><path d="M79.639,163.701c-4.167,-1.25 -8.333,-2.917 -12.083,-5l-0.833,0l-0.833,5l0,0.417c5,2.083 10,4.167 15,5.833l-1.25,-6.25Z" style="fill:#020202;stroke:#000;stroke-width:0.63px;"/></g></svg>