<?xml version="1.0" encoding="UTF-8" standalone="no"?><!DOCTYPE svg PUBLIC "-//W3C//DTD SVG 1.1//EN" "http://www.w3.org/Graphics/SVG/1.1/DTD/svg11.dtd"><svg width="100%" height="100%" viewBox="0 0 163 146" version="1.1" xmlns="http://www.w3.org/2000/svg" xmlns:xlink="http://www.w3.org/1999/xlink" xml:space="preserve" xmlns:serif="http://www.serif.com/" style="fill-rule:evenodd;clip-rule:evenodd;"><g><path d="M1.306,60.472l6.25,3.75c-0.417,-2.5 0,-4.583 0,-6.667l-5.833,-5c-0.417,2.5 -0.417,5.417 -0.417,7.917Z" style="fill:#020202;stroke:#000;stroke-width:0.63px;"/><path d="M2.556,46.722l5.833,5c0.833,-2.083 1.25,-4.583 2.083,-6.667l-5.417,-6.25c-0.833,2.917 -1.667,5.417 -2.5,7.917Z" style="fill:#020202;stroke:#000;stroke-width:0.63px;"/><path d="M8.806,76.306c-0.417,-2.083 -0.833,-4.167 -0.833,-6.25l-6.25,-3.333c0,2.5 0.417,5 1.25,7.5l5.833,2.083Z" style="fill:#020202;stroke:#000;stroke-width:0.63px;"/><path d="M14.639,100.472l5,-0.417c-1.25,-2.083 -2.5,-4.167 -3.75,-5.833l-5.833,-0.833c1.25,2.5 2.917,5 4.583,7.083Z" style="fill:#020202;stroke:#000;stroke-width:0.63px;"/><path d="M4.639,80.472c0.833,2.5 1.667,5 2.917,7.5l5.417,0.417c-0.833,-1.667 -1.667,-3.75 -2.083,-5.833l-6.25,-2.083Z" style="fill:#020202;stroke:#000;stroke-width:0.63px;"/><path d="M50.889,127.556c-2.917,-1.667 -5.417,-3.333 -7.917,-5l-2.5,3.333c2.917,2.083 6.25,4.167 10,6.25l0.417,-4.583Z" style="fill:#020202;stroke:#000;stroke-width:0.63px;"/><path d="M38.806,119.639c-2.5,-1.667 -4.583,-3.75 -6.667,-5.417l-4.167,2.083c2.5,2.083 5.417,4.583 8.333,6.667l2.5,-3.333Z" style="fill:#020202;stroke:#000;stroke-width:0.63px;"/><path d="M7.556,33.806l5.417,6.25c0.833,-2.083 2.083,-4.167 3.75,-6.25l-4.583,-7.083c-1.667,2.083 -3.333,4.583 -4.583,7.083Z" style="fill:#020202;stroke:#000;stroke-width:0.63px;"/><path d="M15.889,22.556l4.167,7.083c1.667,-2.083 3.75,-4.167 5.833,-5.833l-3.333,-7.917c-2.5,2.083 -4.583,4.167 -6.667,6.667Z" style="fill:#020202;stroke:#000;stroke-width:0.63px;"/><path d="M27.972,110.472c-1.667,-2.083 -3.333,-3.75 -5,-5.833l-5,0.417c2.083,2.5 4.167,5 6.25,7.5l3.75,-2.083Z" style="fill:#020202;stroke:#000;stroke-width:0.63px;"/><path d="M35.889,7.972c-2.917,1.667 -6.25,3.333 -8.75,5l2.917,7.917c2.5,-1.667 5,-3.333 7.917,-4.583l-2.083,-8.333Z" style="fill:#020202;stroke:#000;stroke-width:0.63px;"/><path d="M126.306,132.139c-2.5,1.25 -5,2.083 -7.917,3.333l6.667,4.167c0.417,0 0.833,0 1.25,-0.417l2.5,-6.25l-2.5,-0.833Z" style="fill:#020202;stroke:#000;stroke-width:0.63px;"/><path d="M150.056,60.472c1.25,2.917 2.5,5.833 3.333,8.75l4.167,-0.833l3.333,-7.5c-0.833,-1.25 -1.25,-2.917 -2.083,-4.167l-8.75,3.75Z" style="fill:#020202;stroke:#000;stroke-width:0.63px;"/><path d="M142.139,47.139c2.083,2.917 4.167,5.833 5.417,8.75l9.167,-3.75c-2.083,-3.333 -4.167,-6.667 -6.25,-10l-8.333,5Z" style="fill:#020202;stroke:#000;stroke-width:0.63px;"/><path d="M103.806,7.972c-4.167,-1.667 -8.333,-2.917 -12.5,-3.75l-2.5,8.333c3.333,0.833 7.083,1.667 10.833,3.333l4.167,-7.917Z" style="fill:#020202;stroke:#000;stroke-width:0.63px;"/><path d="M118.806,141.722l-6.667,-4.583c-2.917,0.417 -5.833,1.25 -9.167,1.25l5,5c3.75,-0.417 7.5,-0.833 10.833,-1.667Z" style="fill:#020202;stroke:#000;stroke-width:0.63px;"/><path d="M108.389,9.639l-4.167,7.917c1.25,0.833 2.5,1.25 3.75,1.667c2.5,1.25 4.583,2.5 6.667,3.333l5.417,-7.083c-2.083,-1.25 -4.583,-2.5 -7.083,-3.75c-1.667,-0.833 -2.917,-1.25 -4.583,-2.083Z" style="fill:#020202;stroke:#000;stroke-width:0.63px;"/><path d="M118.806,25.472c3.333,2.083 6.25,4.167 9.167,6.667l7.083,-6.25c-3.333,-2.5 -6.667,-5 -10.417,-7.5l-5.833,7.083Z" style="fill:#020202;stroke:#000;stroke-width:0.63px;"/><path d="M139.222,43.389l7.917,-5c-2.5,-3.333 -5.417,-6.25 -8.333,-9.167l-7.083,6.25c2.5,2.5 5,5 7.5,7.917Z" style="fill:#020202;stroke:#000;stroke-width:0.63px;"/><path d="M154.639,74.222l0,0.417l0.417,-0.417l-0.417,0Z" style="fill:#020202;stroke:#000;stroke-width:0.63px;"/><path d="M65.056,133.806c-3.333,-1.25 -6.25,-2.5 -9.167,-3.75l-0.833,4.167c3.75,1.667 7.5,3.333 11.25,4.583l-1.25,-5Z" style="fill:#020202;stroke:#000;stroke-width:0.63px;"/><path d="M83.806,142.972l-3.333,-5c-3.333,-0.833 -6.667,-1.25 -9.583,-2.5l1.25,5c3.75,1.25 7.5,2.083 11.667,2.5Z" style="fill:#020202;stroke:#000;stroke-width:0.63px;"/><path d="M68.806,1.306c-4.167,0 -8.333,0.417 -12.083,0.833l0.417,8.75c3.333,-0.417 6.667,-0.833 10.417,-0.833l1.25,-8.75Z" style="fill:#020202;stroke:#000;stroke-width:0.63px;"/><path d="M42.556,14.639c3.333,-1.25 6.25,-2.083 9.583,-2.917l-0.417,-8.75c-3.75,0.833 -7.5,2.083 -10.833,3.333l1.667,8.333Z" style="fill:#020202;stroke:#000;stroke-width:0.63px;"/><path d="M72.556,10.056c3.75,0.417 7.5,0.833 11.25,1.25l2.5,-8.333c-4.167,-0.833 -8.333,-1.25 -12.5,-1.25l-1.25,8.333Z" style="fill:#020202;stroke:#000;stroke-width:0.63px;"/><path d="M101.306,144.222l-5,-5.417c-2.917,0.417 -6.25,0 -9.583,0l3.333,5c3.75,0.417 7.5,0.417 11.25,0.417Z" style="fill:#020202;stroke:#000;stroke-width:0.63px;"/></g></svg>