<?xml version="1.0" encoding="UTF-8" standalone="no"?><!DOCTYPE svg PUBLIC "-//W3C//DTD SVG 1.1//EN" "http://www.w3.org/Graphics/SVG/1.1/DTD/svg11.dtd"><svg width="100%" height="100%" viewBox="0 0 216 215" version="1.1" xmlns="http://www.w3.org/2000/svg" xmlns:xlink="http://www.w3.org/1999/xlink" xml:space="preserve" xmlns:serif="http://www.serif.com/" style="fill-rule:evenodd;clip-rule:evenodd;"><g><path d="M27.972,146.306c-0.833,-1.25 -1.667,-2.5 -2.5,-3.75l-8.333,0c1.25,1.667 2.083,3.333 3.333,5l7.5,-1.25Z" style="fill:#020202;stroke:#000;stroke-width:0.63px;"/><path d="M34.222,155.056c-1.25,-1.25 -2.083,-2.917 -3.333,-4.167l-7.083,1.25c1.25,1.667 2.5,3.333 3.75,5l6.667,-2.083Z" style="fill:#020202;stroke:#000;stroke-width:0.63px;"/><path d="M41.306,162.972c-1.25,-1.25 -2.5,-2.5 -3.75,-3.75l-6.667,2.083c1.667,1.667 2.917,3.333 4.583,5l5.833,-3.333Z" style="fill:#020202;stroke:#000;stroke-width:0.63px;"/><path d="M49.639,170.889c-1.667,-1.25 -2.917,-2.5 -4.583,-4.167l-5.833,3.333c1.667,1.667 3.75,3.333 5.417,5l5,-4.167Z" style="fill:#020202;stroke:#000;stroke-width:0.63px;"/><path d="M22.556,137.556c-0.833,-1.25 -1.25,-2.5 -2.083,-3.75l-8.333,-1.25c0.417,1.667 1.25,3.333 2.083,5l8.333,0Z" style="fill:#020202;stroke:#000;stroke-width:0.63px;"/><path d="M2.139,102.139c0.417,1.25 0.833,2.917 0.833,4.583l9.167,2.917c-0.417,-0.833 -0.417,-2.083 -0.833,-3.333l-9.167,-4.167Z" style="fill:#020202;stroke:#000;stroke-width:0.63px;"/><path d="M17.972,128.389c-0.417,-1.25 -0.833,-2.5 -1.25,-3.333l-9.167,-2.5c0.833,1.667 1.25,3.333 2.083,4.583l8.333,1.25Z" style="fill:#020202;stroke:#000;stroke-width:0.63px;"/><path d="M14.639,119.222c-0.417,-1.25 -0.833,-2.5 -1.25,-3.333l-9.167,-3.333c0.417,1.25 0.833,2.917 1.667,4.583l8.75,2.083Z" style="fill:#020202;stroke:#000;stroke-width:0.63px;"/><path d="M120.056,15.472c2.5,0.417 4.583,0.833 6.667,1.25l4.167,-12.5c-2.5,-0.417 -5,-0.833 -7.917,-1.25l-2.917,12.5Z" style="fill:#020202;stroke:#000;stroke-width:0.63px;"/><path d="M1.722,95.889l9.167,4.583c-0.417,-1.25 -0.417,-2.5 -0.417,-3.333l-9.167,-5.417c0,1.25 0,2.917 0.417,4.167Z" style="fill:#020202;stroke:#000;stroke-width:0.63px;"/><path d="M58.389,177.972c-1.667,-1.25 -3.333,-2.5 -5,-3.75l-4.583,4.167c1.667,1.667 3.75,2.917 6.25,4.583l3.333,-5Z" style="fill:#020202;stroke:#000;stroke-width:0.63px;"/><path d="M1.306,85.889l9.167,5l0,-3.333l-8.75,-6.25c-0.417,1.25 -0.417,2.917 -0.417,4.583Z" style="fill:#020202;stroke:#000;stroke-width:0.63px;"/><path d="M9.222,52.556c-0.417,0.833 -0.833,2.083 -1.25,3.333l7.917,8.333c0.417,-1.25 1.25,-2.5 1.667,-3.75l-7.917,-8.75c0,0 0,0.417 -0.417,0.833Z" style="fill:#020202;stroke:#000;stroke-width:0.63px;"/><path d="M4.222,65.472l8.75,7.5c0.417,-1.25 0.833,-2.5 1.25,-3.75l-8.333,-7.917c-0.417,1.25 -1.25,2.917 -1.667,4.167Z" style="fill:#020202;stroke:#000;stroke-width:0.63px;"/><path d="M2.139,75.472l9.167,6.25c0,-1.25 0,-2.083 0.417,-3.333l-8.75,-7.5c-0.417,1.667 -0.417,2.917 -0.833,4.583Z" style="fill:#020202;stroke:#000;stroke-width:0.63px;"/><path d="M17.972,38.389l7.083,9.583c0.833,-1.25 1.667,-2.083 2.917,-3.333l-6.667,-10.417c-1.25,1.25 -2.083,2.5 -3.333,4.167Z" style="fill:#020202;stroke:#000;stroke-width:0.63px;"/><path d="M25.056,30.472l6.25,10.417c1.25,-1.25 2.083,-2.083 3.333,-3.333l-5.833,-10.833c-1.25,1.25 -2.5,2.5 -3.75,3.75Z" style="fill:#020202;stroke:#000;stroke-width:0.63px;"/><path d="M12.139,46.722l7.917,9.167c0.833,-1.25 1.25,-2.5 2.083,-3.333l-7.083,-10c-0.833,1.25 -2.083,2.917 -2.917,4.167Z" style="fill:#020202;stroke:#000;stroke-width:0.63px;"/><path d="M143.389,21.306c2.083,0.417 4.167,1.25 6.25,2.083l6.25,-11.667c-2.5,-0.833 -5,-1.667 -7.5,-2.5l-5,12.083Z" style="fill:#020202;stroke:#000;stroke-width:0.63px;"/><path d="M160.472,28.389l7.5,-11.25c-0.417,0 -0.833,-0.417 -1.25,-0.417c-2.083,-1.25 -4.167,-2.083 -6.25,-2.917l-6.25,11.667c2.083,0.833 3.75,1.667 5.833,2.5l0.417,0.417Z" style="fill:#020202;stroke:#000;stroke-width:0.63px;"/><path d="M108.806,208.389c2.917,0.833 5.417,1.25 7.917,2.083l-3.333,-7.5c-2.083,-0.417 -4.167,-1.25 -6.25,-1.667l1.667,7.083Z" style="fill:#020202;stroke:#000;stroke-width:0.63px;"/><path d="M105.472,1.306l-7.5,0l-0.833,12.917l6.667,0l1.667,-12.917Z" style="fill:#020202;stroke:#000;stroke-width:0.63px;"/><path d="M80.472,2.972c-2.083,0.417 -4.583,0.833 -6.667,1.25l1.667,12.917c1.667,-0.417 3.75,-0.833 5.417,-1.25l-0.417,-12.917Z" style="fill:#020202;stroke:#000;stroke-width:0.63px;"/><path d="M175.472,36.722c1.667,1.25 3.75,2.5 5.417,3.75l9.583,-10c-2.5,-1.25 -4.583,-2.917 -6.667,-4.167l-8.333,10.417Z" style="fill:#020202;stroke:#000;stroke-width:0.63px;"/><path d="M185.056,43.389c1.667,1.25 3.333,2.917 5,4.167l10.417,-9.167c-2.083,-1.667 -4.167,-3.333 -6.25,-5l-9.167,10Z" style="fill:#020202;stroke:#000;stroke-width:0.63px;"/><path d="M193.806,50.889c1.667,1.667 3.333,2.917 5,4.583l10.833,-8.333c-1.667,-1.667 -3.333,-3.75 -5.417,-5.417l-10.417,9.167Z" style="fill:#020202;stroke:#000;stroke-width:0.63px;"/><path d="M138.389,19.639l5,-12.083c-2.5,-0.833 -5,-1.25 -7.5,-2.083l-4.167,12.5c2.083,0.417 4.583,1.25 6.667,1.667Z" style="fill:#020202;stroke:#000;stroke-width:0.63px;"/><path d="M202.139,59.222c1.25,1.667 2.917,2.917 4.167,4.583l4.583,-2.917l3.75,-8.333c-0.417,-0.833 -0.833,-1.25 -1.25,-1.667l-11.25,8.333Z" style="fill:#020202;stroke:#000;stroke-width:0.63px;"/><path d="M165.056,30.472c2.083,1.25 4.167,2.5 5.833,3.333l8.333,-10.417c-2.083,-1.25 -4.583,-2.5 -6.667,-3.75l-7.5,10.833Z" style="fill:#020202;stroke:#000;stroke-width:0.63px;"/><path d="M65.056,20.056c1.667,-0.833 3.75,-1.25 5.417,-1.667l-1.667,-12.917c-2.083,0.833 -4.167,1.25 -6.25,2.083l2.5,12.5Z" style="fill:#020202;stroke:#000;stroke-width:0.63px;"/><path d="M41.722,17.139l5,11.667c1.25,-0.833 2.5,-1.667 4.167,-2.5l-3.75,-12.083c-1.667,0.833 -3.75,1.667 -5.417,2.917Z" style="fill:#020202;stroke:#000;stroke-width:0.63px;"/><path d="M57.556,9.222c-2.083,0.833 -3.75,1.667 -5.833,2.5l3.75,12.083c1.667,-0.833 3.333,-1.25 5,-2.083l-2.917,-12.5Z" style="fill:#020202;stroke:#000;stroke-width:0.63px;"/><path d="M32.972,23.389l5.417,10.833c1.25,-0.833 2.5,-1.667 3.75,-2.5l-4.583,-11.667c-1.667,0.833 -3.333,2.083 -4.583,3.333Z" style="fill:#020202;stroke:#000;stroke-width:0.63px;"/><path d="M86.306,15.056c1.667,0 3.75,-0.417 5.833,-0.417l0.833,-12.917c-2.5,0 -5,0.417 -7.5,0.417l0.833,12.917Z" style="fill:#020202;stroke:#000;stroke-width:0.63px;"/><path d="M108.806,14.639c2.083,0 4.167,0 6.25,0.417l2.917,-12.917c-2.5,0 -5,-0.417 -7.5,-0.417l-1.667,12.917Z" style="fill:#020202;stroke:#000;stroke-width:0.63px;"/><path d="M103.389,207.139l-2.083,-7.5c-2.083,-0.417 -4.167,-1.25 -6.25,-2.083l0.417,7.083c2.5,0.833 5.417,1.667 7.917,2.5Z" style="fill:#020202;stroke:#000;stroke-width:0.63px;"/><path d="M130.472,212.556l-4.583,-7.917c-2.083,0 -4.167,-0.417 -6.25,-0.833l3.333,7.5c2.5,0.417 5,0.833 7.5,1.25Z" style="fill:#020202;stroke:#000;stroke-width:0.63px;"/><path d="M90.056,195.472c-2.5,-0.833 -4.583,-1.667 -6.667,-2.5l-0.833,6.25c2.5,1.25 5,2.083 7.5,3.333l0,-7.083Z" style="fill:#020202;stroke:#000;stroke-width:0.63px;"/><path d="M143.389,212.972l0.417,-0.417l-5.833,-7.083l-5.833,0l4.583,7.5l6.667,0Z" style="fill:#020202;stroke:#000;stroke-width:0.63px;"/><path d="M78.806,190.472c-2.083,-0.833 -4.167,-2.083 -6.25,-3.333l-2.083,5.833c2.083,1.25 4.583,2.5 7.083,3.75l1.25,-6.25Z" style="fill:#020202;stroke:#000;stroke-width:0.63px;"/><path d="M68.389,184.639c-2.083,-1.25 -3.75,-2.5 -5.833,-3.75l-3.75,5c2.5,1.667 4.583,2.917 7.083,4.583l2.5,-5.833Z" style="fill:#020202;stroke:#000;stroke-width:0.63px;"/></g></svg>