<?xml version="1.0" encoding="UTF-8" standalone="no"?><!DOCTYPE svg PUBLIC "-//W3C//DTD SVG 1.1//EN" "http://www.w3.org/Graphics/SVG/1.1/DTD/svg11.dtd"><svg width="100%" height="100%" viewBox="0 0 249 258" version="1.1" xmlns="http://www.w3.org/2000/svg" xmlns:xlink="http://www.w3.org/1999/xlink" xml:space="preserve" xmlns:serif="http://www.serif.com/" style="fill-rule:evenodd;clip-rule:evenodd;"><g><path d="M38.389,183.389c-1.667,-2.083 -3.333,-4.167 -4.583,-6.667l-9.583,0.833c2.083,2.917 3.75,5.417 5.833,7.917l8.333,-2.083Z" style="fill:#020202;stroke:#000;stroke-width:0.63px;"/><path d="M47.139,193.806c-1.667,-2.083 -3.75,-4.167 -5.417,-6.25l-8.333,2.083c2.083,2.5 4.167,5.417 6.667,7.917l7.083,-3.75Z" style="fill:#020202;stroke:#000;stroke-width:0.63px;"/><path d="M57.139,203.806c-2.083,-1.667 -4.167,-3.75 -6.25,-5.833l-7.083,3.333c2.5,2.5 5,5 7.5,7.5l5.833,-5Z" style="fill:#020202;stroke:#000;stroke-width:0.63px;"/><path d="M14.222,160.056l10,0.417c-1.25,-2.083 -2.083,-4.167 -2.917,-6.25l-10.417,-2.083c0.833,2.5 2.083,5 3.333,7.917Z" style="fill:#020202;stroke:#000;stroke-width:0.63px;"/><path d="M68.389,213.389c-2.5,-2.083 -5,-4.167 -7.083,-5.833l-6.25,4.583c2.917,2.083 5.833,4.583 8.75,6.667l4.583,-5.417Z" style="fill:#020202;stroke:#000;stroke-width:0.63px;"/><path d="M30.472,172.139c-1.25,-2.083 -2.5,-4.167 -3.75,-6.25l-10,-0.833c1.667,2.5 2.917,5.417 4.583,7.917l9.167,-0.833Z" style="fill:#020202;stroke:#000;stroke-width:0.63px;"/><path d="M229.639,57.139c2.083,2.083 4.167,4.167 6.667,6.25l8.333,-6.667l2.5,-5.833c-2.083,-1.667 -3.75,-3.333 -5.833,-5l-11.667,11.25Z" style="fill:#020202;stroke:#000;stroke-width:0.63px;"/><path d="M167.139,23.389c2.917,0.833 5.833,2.083 8.75,2.917l7.083,-14.167c-3.333,-1.25 -6.667,-2.5 -10.417,-3.333l-5.417,14.583Z" style="fill:#020202;stroke:#000;stroke-width:0.63px;"/><path d="M180.472,27.972c2.917,1.25 5.833,2.5 8.75,3.75l8.333,-13.75c-3.333,-1.25 -6.667,-2.917 -10,-4.167l-7.083,14.167Z" style="fill:#020202;stroke:#000;stroke-width:0.63px;"/><path d="M153.389,20.056c2.917,0.417 5.833,1.25 8.75,2.083l5.833,-14.583c-3.333,-1.25 -7.083,-2.083 -10.417,-2.5l-4.167,15Z" style="fill:#020202;stroke:#000;stroke-width:0.63px;"/><path d="M206.306,40.472c2.5,1.667 5.417,3.333 7.917,5l10.833,-12.083c-2.917,-2.083 -5.833,-3.75 -9.167,-5.833l-9.583,12.917Z" style="fill:#020202;stroke:#000;stroke-width:0.63px;"/><path d="M218.389,48.389c2.5,1.667 5,3.75 7.083,5.417l12.083,-11.25c-2.917,-2.083 -5.417,-4.167 -8.333,-6.25l-10.833,12.083Z" style="fill:#020202;stroke:#000;stroke-width:0.63px;"/><path d="M193.806,33.806c2.5,1.25 5.417,2.917 7.917,4.167l9.583,-12.917c-2.917,-1.667 -5.833,-3.333 -9.167,-5l-8.333,13.75Z" style="fill:#020202;stroke:#000;stroke-width:0.63px;"/><path d="M13.389,58.806l9.583,10.417c0.833,-1.667 1.667,-3.333 2.917,-5l-9.167,-11.667c-1.25,2.083 -2.5,4.167 -3.333,6.25Z" style="fill:#020202;stroke:#000;stroke-width:0.63px;"/><path d="M58.806,15.472l5,14.583c2.083,-1.25 4.167,-2.083 6.25,-3.333l-3.75,-14.583c-2.5,0.833 -5,2.083 -7.5,3.333Z" style="fill:#020202;stroke:#000;stroke-width:0.63px;"/><path d="M139.639,17.972c2.917,0 5.833,0.417 8.75,1.25l4.167,-15.417c-3.333,-0.417 -6.667,-0.833 -10,-1.25l-2.917,15.417Z" style="fill:#020202;stroke:#000;stroke-width:0.63px;"/><path d="M99.222,18.389c2.917,-0.417 5.417,-0.833 8.333,-0.833l0,-15.417c-3.333,0 -6.25,0.417 -9.583,0.833l1.25,15.417Z" style="fill:#020202;stroke:#000;stroke-width:0.63px;"/><path d="M86.722,21.306c2.5,-0.833 5,-1.25 7.5,-1.667l-1.25,-15.417c-2.917,0.417 -5.833,1.25 -8.75,1.667l2.5,15.417Z" style="fill:#020202;stroke:#000;stroke-width:0.63px;"/><path d="M125.889,16.722c2.917,0 5.833,0.417 8.75,0.417l2.917,-15.417c-3.333,0 -6.667,-0.417 -10,-0.417l-1.667,15.417Z" style="fill:#020202;stroke:#000;stroke-width:0.63px;"/><path d="M112.556,17.139c2.5,-0.417 5.417,-0.417 8.333,-0.417l1.25,-15.417c-2.917,0 -6.25,0 -9.583,0.417l0,15.417Z" style="fill:#020202;stroke:#000;stroke-width:0.63px;"/><path d="M134.639,243.806c-2.917,-0.417 -5.833,-1.25 -8.75,-2.083l1.667,8.75c3.333,0.833 6.667,1.667 10.417,2.5l-3.333,-9.167Z" style="fill:#020202;stroke:#000;stroke-width:0.63px;"/><path d="M154.639,247.139l2.917,5.417l2.5,-5c-1.667,0 -3.333,-0.417 -5.417,-0.417Z" style="fill:#020202;stroke:#000;stroke-width:0.63px;"/><path d="M122.139,248.806l-1.667,-8.75c-2.917,-0.833 -5.833,-1.667 -8.75,-2.917l0,8.333c3.333,1.25 7.083,2.083 10.417,3.333Z" style="fill:#020202;stroke:#000;stroke-width:0.63px;"/><path d="M2.139,94.222l10.833,7.083c0,-1.667 0.417,-3.75 0.833,-5.417l-10.833,-8.75c-0.417,2.5 -0.833,4.583 -0.833,7.083Z" style="fill:#020202;stroke:#000;stroke-width:0.63px;"/><path d="M47.139,22.139l6.25,13.75c2.083,-1.25 3.75,-2.5 5.833,-3.333l-5,-14.583c-2.5,1.25 -4.583,2.5 -7.083,4.167Z" style="fill:#020202;stroke:#000;stroke-width:0.63px;"/><path d="M71.306,10.056l3.75,15c2.083,-0.833 4.583,-1.667 6.667,-2.5l-2.5,-15c-2.5,0.833 -5.417,1.667 -7.917,2.5Z" style="fill:#020202;stroke:#000;stroke-width:0.63px;"/><path d="M7.972,70.056l10,9.583c0.833,-2.083 1.667,-3.75 2.5,-5.417l-9.583,-10.833c-1.25,2.083 -2.083,4.583 -2.917,6.667Z" style="fill:#020202;stroke:#000;stroke-width:0.63px;"/><path d="M16.306,84.639l-10,-9.583c-0.833,2.5 -1.667,4.583 -2.083,6.667l10.417,8.333c0.417,-1.667 1.25,-3.75 1.667,-5.417Z" style="fill:#020202;stroke:#000;stroke-width:0.63px;"/><path d="M27.556,38.389l8.333,12.5c1.25,-1.667 2.917,-2.917 4.167,-4.583l-7.083,-12.917c-1.667,1.667 -3.333,3.333 -5.417,5Z" style="fill:#020202;stroke:#000;stroke-width:0.63px;"/><path d="M37.139,29.639l7.083,13.333c1.667,-1.25 3.333,-2.917 5,-4.167l-6.25,-13.75c-2.083,1.667 -4.167,2.917 -5.833,4.583Z" style="fill:#020202;stroke:#000;stroke-width:0.63px;"/><path d="M19.639,48.389l9.167,11.25c0.833,-1.667 2.083,-3.333 3.333,-4.583l-7.917,-12.5c-1.667,1.667 -2.917,3.75 -4.583,5.833Z" style="fill:#020202;stroke:#000;stroke-width:0.63px;"/><path d="M106.722,235.056c-2.917,-1.25 -5.833,-2.5 -8.75,-3.75l-1.667,7.5c3.333,1.667 7.083,2.917 10.417,4.583l0,-8.333Z" style="fill:#020202;stroke:#000;stroke-width:0.63px;"/><path d="M153.806,255.889l-5,-9.583c-2.917,0 -5.833,-0.833 -8.333,-1.25l3.333,9.167c3.333,0.417 6.667,1.25 10,1.667Z" style="fill:#020202;stroke:#000;stroke-width:0.63px;"/><path d="M12.972,124.639c0,-1.667 -0.417,-3.75 -0.417,-5.833l-11.25,-5.833c0.417,2.5 0.417,4.583 0.833,7.083l10.833,4.583Z" style="fill:#020202;stroke:#000;stroke-width:0.63px;"/><path d="M19.222,148.806c-0.833,-2.083 -1.667,-4.167 -2.083,-6.25l-10.833,-3.333c0.417,2.5 1.25,5 2.5,7.5l10.417,2.083Z" style="fill:#020202;stroke:#000;stroke-width:0.63px;"/><path d="M15.472,136.722c-0.417,-2.083 -0.833,-4.167 -1.25,-6.25l-11.25,-4.583c0.417,2.5 1.25,5 1.667,7.5l10.833,3.333Z" style="fill:#020202;stroke:#000;stroke-width:0.63px;"/><path d="M1.306,107.139l10.833,5.833c0,-2.083 0,-3.75 0.417,-5.833l-11.25,-7.083l0,7.083Z" style="fill:#020202;stroke:#000;stroke-width:0.63px;"/><path d="M72.556,216.306l-4.583,5.833c2.917,2.083 6.25,4.167 9.167,6.25l3.333,-6.667c-2.5,-1.667 -5.417,-3.75 -7.917,-5.417Z" style="fill:#020202;stroke:#000;stroke-width:0.63px;"/><path d="M93.389,228.806c-2.917,-1.25 -5.833,-2.917 -8.333,-4.583l-3.333,6.667c3.333,2.083 6.667,3.75 10,5.417l1.667,-7.5Z" style="fill:#020202;stroke:#000;stroke-width:0.63px;"/></g></svg>