<?xml version="1.0" encoding="UTF-8" standalone="no"?><!DOCTYPE svg PUBLIC "-//W3C//DTD SVG 1.1//EN" "http://www.w3.org/Graphics/SVG/1.1/DTD/svg11.dtd"><svg width="100%" height="100%" viewBox="0 0 308 308" version="1.1" xmlns="http://www.w3.org/2000/svg" xmlns:xlink="http://www.w3.org/1999/xlink" xml:space="preserve" xmlns:serif="http://www.serif.com/" style="fill-rule:evenodd;clip-rule:evenodd;"><g><path d="M158.389,293.389l2.5,10.417c3.75,1.25 7.917,2.083 11.667,2.5l1.25,-3.333l-2.917,-7.083c-4.167,-0.417 -8.333,-1.667 -12.5,-2.5Z" style="fill:#020202;stroke:#000;stroke-width:0.63px;"/><path d="M305.889,68.389c-3.333,-2.917 -6.25,-5.833 -9.583,-9.167l-15,13.333c0.417,0.417 0.833,0.833 0.833,0.833l17.083,0l6.667,-5Z" style="fill:#020202;stroke:#000;stroke-width:0.63px;"/><path d="M62.972,22.972l6.667,16.667c2.917,-1.667 5.417,-2.917 8.333,-4.583l-5.417,-17.5c-3.333,1.667 -6.667,3.333 -9.583,5.417Z" style="fill:#020202;stroke:#000;stroke-width:0.63px;"/><path d="M49.639,31.722l8.333,15.833c2.5,-1.667 4.583,-3.333 7.5,-5l-7.083,-17.083c-2.917,2.083 -5.833,4.167 -8.75,6.25Z" style="fill:#020202;stroke:#000;stroke-width:0.63px;"/><path d="M37.972,41.722l9.167,15c2.083,-2.083 4.583,-3.75 6.667,-5.833l-8.333,-16.25c-2.5,2.5 -5,4.583 -7.5,7.083Z" style="fill:#020202;stroke:#000;stroke-width:0.63px;"/><path d="M92.556,9.639l4.167,17.917c3.333,-0.833 6.667,-1.667 10,-2.5l-2.5,-18.75c-4.167,1.25 -7.917,2.083 -11.667,3.333Z" style="fill:#020202;stroke:#000;stroke-width:0.63px;"/><path d="M27.556,52.972l10.417,14.167c2.083,-2.5 3.75,-4.583 5.833,-6.667l-9.583,-15c-2.083,2.083 -4.583,4.583 -6.667,7.5Z" style="fill:#020202;stroke:#000;stroke-width:0.63px;"/><path d="M77.139,15.472l5.417,17.5c2.917,-1.25 6.25,-2.5 9.167,-3.75l-3.75,-17.917c-3.75,1.25 -7.5,2.5 -10.833,4.167Z" style="fill:#020202;stroke:#000;stroke-width:0.63px;"/><path d="M25.472,87.139c0.417,-1.25 1.25,-2.917 2.083,-4.167l-11.25,-13.333c-0.833,2.083 -2.083,4.167 -2.917,6.25c-0.417,0.417 -0.833,1.25 -1.25,2.083l12.083,12.083c0.417,-0.833 0.833,-2.083 1.25,-2.917Z" style="fill:#020202;stroke:#000;stroke-width:0.63px;"/><path d="M3.389,106.306l12.917,9.167c0.417,-2.5 0.833,-5 1.667,-7.5l-12.5,-10.833c-0.833,2.917 -1.667,6.25 -2.083,9.167Z" style="fill:#020202;stroke:#000;stroke-width:0.63px;"/><path d="M1.722,121.306l13.333,7.5c0,-2.5 0,-5 0.417,-7.5l-12.917,-9.583c-0.417,3.333 -0.833,6.25 -0.833,9.583Z" style="fill:#020202;stroke:#000;stroke-width:0.63px;"/><path d="M6.722,91.722l12.917,10.833c0.417,-2.5 1.25,-5 2.5,-7.5l-12.083,-12.083c-1.25,2.917 -2.083,5.833 -3.333,8.75Z" style="fill:#020202;stroke:#000;stroke-width:0.63px;"/><path d="M208.806,30.472c3.75,1.25 7.5,2.5 11.25,4.167l9.167,-17.083c-4.583,-1.667 -8.75,-3.333 -12.917,-4.583l-7.5,17.5Z" style="fill:#020202;stroke:#000;stroke-width:0.63px;"/><path d="M159.222,20.472c4.167,0.417 7.917,0.417 11.667,1.25l4.167,-18.75c-4.583,-0.417 -8.75,-0.833 -13.333,-1.25l-2.5,18.75Z" style="fill:#020202;stroke:#000;stroke-width:0.63px;"/><path d="M192.556,25.472c3.75,1.25 7.5,2.083 11.25,3.333l7.5,-17.5c-4.167,-1.25 -8.75,-2.5 -12.917,-3.75l-5.833,17.917Z" style="fill:#020202;stroke:#000;stroke-width:0.63px;"/><path d="M175.889,22.139c3.75,0.833 7.917,1.667 11.667,2.5l5.833,-18.333c-4.583,-0.833 -8.75,-1.667 -13.333,-2.5l-4.167,18.333Z" style="fill:#020202;stroke:#000;stroke-width:0.63px;"/><path d="M233.806,19.639l-9.167,16.667c2.917,1.25 5.417,2.5 8.333,3.75c0.833,0.417 1.667,0.833 2.5,1.25l10.833,-15.833c-1.25,-0.833 -2.5,-1.25 -3.333,-1.667c-2.917,-1.667 -6.25,-2.917 -9.167,-4.167Z" style="fill:#020202;stroke:#000;stroke-width:0.63px;"/><path d="M1.722,136.306l13.333,6.25c-0.417,-2.5 -0.417,-5 -0.417,-7.917l-13.333,-7.5c0,2.917 0,6.25 0.417,9.167Z" style="fill:#020202;stroke:#000;stroke-width:0.63px;"/><path d="M109.222,5.472l2.083,18.333c3.75,-0.833 7.083,-1.667 10.833,-2.083l-0.833,-18.75c-4.167,0.833 -8.333,1.667 -12.083,2.5Z" style="fill:#020202;stroke:#000;stroke-width:0.63px;"/><path d="M127.139,21.306c3.333,-0.417 7.083,-0.833 10.833,-1.25l0.833,-18.75c-4.167,0.417 -8.333,0.833 -12.5,1.25l0.833,18.75Z" style="fill:#020202;stroke:#000;stroke-width:0.63px;"/><path d="M143.806,1.306l-0.833,18.75l11.25,0l2.5,-18.75l-12.917,0Z" style="fill:#020202;stroke:#000;stroke-width:0.63px;"/><path d="M240.056,43.806c3.333,2.083 7.083,3.75 10.417,5.833l12.083,-15.417c-3.75,-2.083 -7.917,-4.583 -11.667,-6.667l-10.833,16.25Z" style="fill:#020202;stroke:#000;stroke-width:0.63px;"/><path d="M155.472,302.556l-2.917,-10.833c-4.167,-0.833 -8.333,-2.083 -12.5,-3.75l0.417,10c5,1.667 10,3.333 15,4.583Z" style="fill:#020202;stroke:#000;stroke-width:0.63px;"/><path d="M20.056,170.472c-0.833,-2.5 -1.667,-5.417 -2.083,-7.917l-13.333,-5c0.833,3.333 1.667,6.667 2.5,9.583l12.917,3.333Z" style="fill:#020202;stroke:#000;stroke-width:0.63px;"/><path d="M31.306,197.972c-1.25,-2.5 -2.917,-5.417 -4.167,-7.917l-12.083,-1.667c1.25,3.333 2.917,6.25 4.583,9.583l11.667,0Z" style="fill:#020202;stroke:#000;stroke-width:0.63px;"/><path d="M16.722,156.722c-0.417,-2.917 -0.833,-5.417 -1.25,-7.917l-13.333,-6.667c0.417,3.333 0.833,6.667 1.25,9.583l13.333,5Z" style="fill:#020202;stroke:#000;stroke-width:0.63px;"/><path d="M25.056,184.222c-1.25,-2.5 -2.083,-5.417 -3.333,-7.917l-12.917,-3.333c1.25,3.333 2.5,6.667 3.75,10l12.5,1.25Z" style="fill:#020202;stroke:#000;stroke-width:0.63px;"/><path d="M135.056,286.306c-4.167,-1.667 -8.333,-3.333 -12.5,-5.417l-1.667,9.167c5,2.5 9.583,4.167 14.583,6.25l-0.417,-10Z" style="fill:#020202;stroke:#000;stroke-width:0.63px;"/><path d="M116.306,287.972l1.25,-9.167c-3.75,-2.083 -7.917,-4.167 -11.667,-6.25l-3.333,8.333c4.167,2.5 8.75,4.583 12.917,6.667c0.278,0.278 0.556,0.417 0.833,0.417Z" style="fill:#020202;stroke:#000;stroke-width:0.63px;"/><path d="M19.222,65.056l11.25,12.917c1.25,-2.083 2.917,-4.583 4.583,-6.667l-10.417,-14.167c-2.083,2.5 -3.75,5 -5.417,7.917Z" style="fill:#020202;stroke:#000;stroke-width:0.63px;"/><path d="M86.306,260.056c-3.333,-2.5 -6.667,-5 -10,-7.5l-7.083,5.833c3.75,2.917 7.917,5.833 11.667,8.75l5.417,-7.083Z" style="fill:#020202;stroke:#000;stroke-width:0.63px;"/><path d="M268.389,62.139c3.333,2.083 6.25,4.583 9.167,7.083l15,-13.333c-3.333,-2.5 -6.667,-5.417 -10.417,-8.333l-13.75,14.583Z" style="fill:#020202;stroke:#000;stroke-width:0.63px;"/><path d="M28.389,212.972l10.833,-1.25c-1.667,-2.917 -3.333,-5.833 -5,-8.333l-11.667,-0.417c1.667,3.333 3.75,6.667 5.833,10Z" style="fill:#020202;stroke:#000;stroke-width:0.63px;"/><path d="M48.806,224.639c-2.083,-2.917 -4.167,-5.417 -6.25,-8.333l-10.833,1.25c2.5,3.333 5,6.667 7.5,10l9.583,-2.917Z" style="fill:#020202;stroke:#000;stroke-width:0.63px;"/><path d="M60.056,237.139c-2.917,-2.5 -5.417,-5.417 -7.5,-8.333l-10,2.917c2.917,3.333 5.833,6.667 8.75,10l8.75,-4.583Z" style="fill:#020202;stroke:#000;stroke-width:0.63px;"/><path d="M72.556,248.806c-3.333,-2.5 -6.25,-5 -8.75,-7.917l-8.75,4.583c3.333,3.333 7.083,6.25 10.417,9.583l7.083,-6.25Z" style="fill:#020202;stroke:#000;stroke-width:0.63px;"/><path d="M101.306,270.056c-3.75,-2.5 -7.083,-4.583 -10.833,-7.083l-5.417,7.083c4.167,2.917 8.75,5.833 12.917,8.333l3.333,-8.333Z" style="fill:#020202;stroke:#000;stroke-width:0.63px;"/><path d="M254.639,52.556c3.333,2.083 6.667,4.167 9.583,6.25l13.75,-14.167c-3.333,-2.5 -7.083,-5 -10.833,-7.5l-12.5,15.417Z" style="fill:#020202;stroke:#000;stroke-width:0.63px;"/></g></svg>