<?xml version="1.0" encoding="UTF-8" standalone="no"?><!DOCTYPE svg PUBLIC "-//W3C//DTD SVG 1.1//EN" "http://www.w3.org/Graphics/SVG/1.1/DTD/svg11.dtd"><svg width="100%" height="100%" viewBox="0 0 70 51" version="1.1" xmlns="http://www.w3.org/2000/svg" xmlns:xlink="http://www.w3.org/1999/xlink" xml:space="preserve" xmlns:serif="http://www.serif.com/" style="fill-rule:evenodd;clip-rule:evenodd;"><path d="M27.5,29.222c5.833,0 11.25,4.583 12.917,10.417c1.25,5.833 -1.25,10.417 -7.083,10.417l-0.833,-4.167c3.333,0 4.167,-2.917 3.333,-6.25c-0.833,-3.75 -3.75,-6.667 -7.083,-6.667c-3.333,0 -4.583,2.917 -3.333,6.667c0.833,3.333 3.75,6.25 7.083,6.25l0.833,4.167c-5.417,0 -10.833,-4.583 -12.5,-10.417c-1.667,-5.833 1.25,-10.417 6.667,-10.417Z" style="fill-rule:nonzero;"/><path d="M58.333,49.222l1.25,-12.917l3.75,12.917l3.75,0l-5.417,-19.583l-5.417,0l-1.667,12.917l-8.333,-12.917l-5.417,0l5.417,19.583l3.75,0l-3.75,-12.917l8.75,12.917l3.333,0Z" style="fill-rule:nonzero;"/><path d="M11.25,42.139c2.5,0 3.333,0.833 4.167,2.917c0,0.417 0.417,1.25 0.417,1.25c0,1.25 0.833,2.5 1.25,2.917l4.167,0c-0.417,-0.417 -0.833,-1.25 -1.25,-2.083c0,0 -0.833,-3.333 -1.25,-4.167c-0.417,-1.25 -1.667,-2.5 -2.917,-2.917c1.667,-0.833 2.083,-2.5 1.25,-5c-0.833,-2.917 -4.167,-5.417 -7.917,-5.417l-9.167,0l5.417,19.583l4.583,0l-4.583,-15.417l4.583,0c1.25,0 2.5,0.833 2.917,2.083c0.417,1.25 -0.417,2.083 -1.667,2.083l-4.583,0l1.25,4.167l3.333,0Z" style="fill-rule:nonzero;"/><path d="M49.167,10.472l8.333,0l-1.25,-4.583l-8.333,0l1.25,4.583Z" style="fill-rule:nonzero;"/><path d="M30.833,24.222c5.417,0 10.833,4.583 12.5,10.417c1.667,5.417 -1.25,10 -7.083,10l-0.833,-3.75c3.333,0 4.167,-2.917 3.333,-6.25c-0.833,-3.75 -3.75,-6.667 -7.083,-6.667c-2.917,0 -4.583,2.917 -3.333,6.667c0.833,3.333 3.75,6.25 7.083,6.25l0.833,3.75c-5.417,0 -10.833,-4.583 -12.5,-10c-1.667,-5.833 1.25,-10.417 7.083,-10.417Z" style="fill-rule:nonzero;"/><path d="M61.25,44.222l1.25,-13.333l3.75,13.333l3.75,0l-5.417,-19.583l-5.417,0l-1.667,12.917l-8.333,-12.917l-5.417,0l5.417,19.583l3.75,0l-3.75,-13.333l8.75,13.333l3.333,0Z" style="fill-rule:nonzero;"/><path d="M14.167,36.722c2.5,0 3.75,1.25 4.167,3.333c0,0.417 0.417,0.833 0.417,1.25c0.417,0.833 0.833,2.5 1.25,2.917l4.167,0c-0.417,-0.417 -0.833,-1.667 -1.25,-2.083c0,-0.417 -0.833,-3.333 -1.25,-4.167c-0.417,-1.667 -1.667,-2.5 -2.917,-2.917c1.667,-0.833 2.083,-2.5 1.25,-5c-0.833,-2.917 -4.167,-5.417 -7.917,-5.417l-9.167,0l5.417,19.583l4.583,0l-4.167,-15.833l4.167,0c1.25,0 2.917,1.25 2.917,2.5c0.417,1.25 -0.417,2.083 -1.667,2.083l-4.167,0l0.833,3.75l3.333,0Z" style="fill-rule:nonzero;"/><path d="M52.083,5.472l8.333,0l-0.833,-4.167l-8.75,0l1.25,4.167Z" style="fill-rule:nonzero;stroke:#000;stroke-width:0.63px;"/></svg>