<?xml version="1.0" encoding="UTF-8" standalone="no"?><!DOCTYPE svg PUBLIC "-//W3C//DTD SVG 1.1//EN" "http://www.w3.org/Graphics/SVG/1.1/DTD/svg11.dtd"><svg width="100%" height="100%" viewBox="0 0 50 24" version="1.1" xmlns="http://www.w3.org/2000/svg" xmlns:xlink="http://www.w3.org/1999/xlink" xml:space="preserve" xmlns:serif="http://www.serif.com/" style="fill-rule:evenodd;clip-rule:evenodd;"><g><path d="M34.283,18.806l-1.667,2.5l-4.583,0l15.417,-19.583l5,0l-1.667,19.583l-4.583,0l1.667,-14.583l-6.25,8.333l5,0l-0.417,3.75l-7.917,0Z" style="fill:#020202;fill-rule:nonzero;stroke:#000;stroke-width:0.63px;"/><path d="M21.783,7.139c0.833,-3.75 -0.833,-5.833 -5.417,-5.833c-5,0 -8.75,2.5 -10.417,5.417c-1.667,4.583 -0.417,5.417 4.167,6.667c2.917,0.833 4.167,0.833 3.333,2.5c-0.417,1.667 -2.5,2.083 -4.583,2.083c-2.083,0 -3.333,-0.417 -2.917,-2.5l-4.167,0c-1.667,4.583 1.25,6.667 5.417,6.667c4.583,0 9.167,-2.5 10.833,-6.25c2.083,-5 -0.833,-5.417 -4.583,-6.667c-1.667,-0.417 -3.75,-0.833 -2.917,-2.083c0.417,-1.25 1.667,-2.083 4.167,-2.083c1.667,0 2.5,0.833 2.5,1.667l4.583,0.417Z" style="fill:#020202;fill-rule:nonzero;stroke:#000;stroke-width:0.63px;"/><path d="M23.449,21.306l1.667,-3.75l-4.167,0l-1.25,3.75l3.75,0Z" style="fill:#020202;fill-rule:nonzero;stroke:#000;stroke-width:0.63px;"/></g></svg>