<?xml version="1.0" encoding="UTF-8" standalone="no"?><!DOCTYPE svg PUBLIC "-//W3C//DTD SVG 1.1//EN" "http://www.w3.org/Graphics/SVG/1.1/DTD/svg11.dtd"><svg width="100%" height="100%" viewBox="0 0 366 320" version="1.1" xmlns="http://www.w3.org/2000/svg" xmlns:xlink="http://www.w3.org/1999/xlink" xml:space="preserve" xmlns:serif="http://www.serif.com/" style="fill-rule:evenodd;clip-rule:evenodd;"><g><path d="M75.889,164.639l6.25,3.75c-0.417,-2.5 0,-4.583 0,-6.667l-5.833,-5c-0.417,2.5 -0.417,5.417 -0.417,7.917Z" style="fill:#020202;stroke:#000;stroke-width:0.63px;"/><path d="M67.972,127.139c-1.25,2.5 -2.083,4.583 -2.917,7.083l7.083,6.25c0.833,-2.083 1.667,-4.583 2.5,-6.667c0.417,-0.833 0.833,-1.667 1.25,-2.5l-5.833,-7.917c-0.833,1.25 -1.667,2.5 -2.083,3.75Z" style="fill:#020202;stroke:#000;stroke-width:0.63px;"/><path d="M85.056,207.972l-6.25,0.417c2.5,3.75 5.833,7.5 9.167,11.25l5,-2.5c-2.917,-2.917 -5.417,-5.833 -7.917,-9.167Z" style="fill:#020202;stroke:#000;stroke-width:0.63px;"/><path d="M77.139,150.889l5.833,5c0.833,-2.083 1.25,-4.583 2.083,-6.667l-5.417,-6.25c-0.833,2.917 -1.667,5.417 -2.5,7.917Z" style="fill:#020202;stroke:#000;stroke-width:0.63px;"/><path d="M61.306,150.889l7.5,5c0.417,-3.333 0.833,-6.667 1.667,-9.583l-7.083,-6.667c-0.833,3.75 -1.667,7.5 -2.083,11.25Z" style="fill:#020202;stroke:#000;stroke-width:0.63px;"/><path d="M83.389,180.472c-0.417,-2.083 -0.833,-4.167 -0.833,-6.25l-6.25,-3.333c0,2.5 0.417,5 1.25,7.5l5.833,2.083Z" style="fill:#020202;stroke:#000;stroke-width:0.63px;"/><path d="M71.722,207.139c-0.833,-1.25 -1.667,-2.5 -2.5,-3.75l-8.333,0c1.25,1.667 2.083,3.333 3.333,5l7.5,-1.25Z" style="fill:#020202;stroke:#000;stroke-width:0.63px;"/><path d="M77.972,215.889c-1.25,-1.25 -2.083,-2.917 -3.333,-4.167l-7.083,1.25c1.25,1.667 2.5,3.333 3.75,5l6.667,-2.083Z" style="fill:#020202;stroke:#000;stroke-width:0.63px;"/><path d="M85.056,223.806c-1.25,-1.25 -2.5,-2.5 -3.75,-3.75l-6.667,2.083c1.667,1.667 2.917,3.333 4.583,5l5.833,-3.333Z" style="fill:#020202;stroke:#000;stroke-width:0.63px;"/><path d="M93.389,231.722c-1.667,-1.25 -2.917,-2.5 -4.583,-4.167l-5.833,3.333c1.667,1.667 3.75,3.333 5.417,5l5,-4.167Z" style="fill:#020202;stroke:#000;stroke-width:0.63px;"/><path d="M66.306,198.389c-0.833,-1.25 -1.25,-2.5 -2.083,-3.75l-8.333,-1.25c0.417,1.667 1.25,3.333 2.083,5l8.333,0Z" style="fill:#020202;stroke:#000;stroke-width:0.63px;"/><path d="M81.722,202.972c-2.083,-2.917 -3.75,-6.25 -5.417,-9.583l-7.083,-1.25c1.667,3.75 3.75,7.5 6.25,11.667l6.25,-0.833Z" style="fill:#020202;stroke:#000;stroke-width:0.63px;"/><path d="M121.306,219.639l-2.083,2.5c2.083,1.25 3.75,2.5 5.833,3.75l0.833,-3.333c-1.667,-1.25 -2.917,-2.083 -4.583,-2.917Z" style="fill:#020202;stroke:#000;stroke-width:0.63px;"/><path d="M63.389,174.639c0.833,3.75 2.083,7.917 3.333,11.667l7.5,1.25c-1.667,-3.333 -2.5,-6.25 -3.333,-9.583l-7.5,-3.333Z" style="fill:#020202;stroke:#000;stroke-width:0.63px;"/><path d="M45.889,162.972c0.417,1.25 0.833,2.917 0.833,4.583l9.167,2.917c-0.417,-0.833 -0.417,-2.083 -0.833,-3.333l-9.167,-4.167Z" style="fill:#020202;stroke:#000;stroke-width:0.63px;"/><path d="M61.722,189.222c-0.417,-1.25 -0.833,-2.5 -1.25,-3.333l-9.167,-2.5c0.833,1.667 1.25,3.333 2.083,4.583l8.333,1.25Z" style="fill:#020202;stroke:#000;stroke-width:0.63px;"/><path d="M96.306,197.139c0.833,1.25 1.667,2.917 2.917,4.583l4.167,-0.417c-0.833,-1.25 -1.667,-2.083 -2.083,-3.333l-5,-0.833Z" style="fill:#020202;stroke:#000;stroke-width:0.63px;"/><path d="M58.389,180.056c-0.417,-1.25 -0.833,-2.5 -1.25,-3.333l-9.167,-3.333c0.417,1.25 0.833,2.917 1.667,4.583l8.75,2.083Z" style="fill:#020202;stroke:#000;stroke-width:0.63px;"/><path d="M155.472,96.306c4.583,0.417 9.583,1.25 14.167,2.5l3.75,-10c-5.417,-1.667 -10.833,-2.5 -16.25,-2.917l-1.667,10.417Z" style="fill:#020202;stroke:#000;stroke-width:0.63px;"/><path d="M163.806,76.306c2.5,0.417 4.583,0.833 6.667,1.25l4.167,-12.5c-2.5,-0.417 -5,-0.833 -7.917,-1.25l-2.917,12.5Z" style="fill:#020202;stroke:#000;stroke-width:0.63px;"/><path d="M89.222,204.639l5,-0.417c-1.25,-2.083 -2.5,-4.167 -3.75,-5.833l-5.833,-0.833c1.25,2.5 2.917,5 4.583,7.083Z" style="fill:#020202;stroke:#000;stroke-width:0.63px;"/><path d="M90.889,157.972l4.583,4.583c0,-1.667 0.833,-2.917 1.25,-4.167l-4.167,-5.417c-0.833,1.667 -1.25,3.333 -1.667,5Z" style="fill:#020202;stroke:#000;stroke-width:0.63px;"/><path d="M109.639,140.889l-2.5,-6.25c-1.667,1.25 -3.333,2.917 -5,4.167l3.333,5.833c1.25,-1.25 2.5,-2.5 4.167,-3.75Z" style="fill:#020202;stroke:#000;stroke-width:0.63px;"/><path d="M79.222,184.639c0.833,2.5 1.667,5 2.917,7.5l5.417,0.417c-0.833,-1.667 -1.667,-3.75 -2.083,-5.833l-6.25,-2.083Z" style="fill:#020202;stroke:#000;stroke-width:0.63px;"/><path d="M89.222,169.222l5,3.333l0,-4.167l-4.583,-4.583c-0.417,2.083 -0.417,3.75 -0.417,5.417Z" style="fill:#020202;stroke:#000;stroke-width:0.63px;"/><path d="M89.222,175.472c0.417,1.667 0.417,3.333 0.833,5l5,2.083c0,-1.25 -0.417,-2.5 -0.833,-3.75l-5,-3.333Z" style="fill:#020202;stroke:#000;stroke-width:0.63px;"/><path d="M91.722,186.722c0.417,1.667 1.25,2.917 1.667,4.583l5,0.833c-0.417,-1.25 -1.25,-2.083 -1.667,-3.333l-5,-2.083Z" style="fill:#020202;stroke:#000;stroke-width:0.63px;"/><path d="M62.139,168.389l7.5,3.333c-0.417,-3.333 -0.833,-6.667 -0.833,-10l-7.5,-5c0,4.167 0,7.917 0.833,11.667Z" style="fill:#020202;stroke:#000;stroke-width:0.63px;"/><path d="M62.556,216.722c-1.667,-2.083 -3.333,-4.167 -4.583,-6.667l-9.583,0.833c2.083,2.917 3.75,5.417 5.833,7.917l8.333,-2.083Z" style="fill:#020202;stroke:#000;stroke-width:0.63px;"/><path d="M71.306,227.139c-1.667,-2.083 -3.75,-4.167 -5.417,-6.25l-8.333,2.083c2.083,2.5 4.167,5.417 6.667,7.917l7.083,-3.75Z" style="fill:#020202;stroke:#000;stroke-width:0.63px;"/><path d="M81.306,237.139c-2.083,-1.667 -4.167,-3.75 -6.25,-5.833l-7.083,3.333c2.5,2.5 5,5 7.5,7.5l5.833,-5Z" style="fill:#020202;stroke:#000;stroke-width:0.63px;"/><path d="M38.389,193.389l10,0.417c-1.25,-2.083 -2.083,-4.167 -2.917,-6.25l-10.417,-2.083c0.833,2.5 2.083,5 3.333,7.917Z" style="fill:#020202;stroke:#000;stroke-width:0.63px;"/><path d="M92.556,246.722c-2.5,-2.083 -5,-4.167 -7.083,-5.833l-6.25,4.583c2.917,2.083 5.833,4.583 8.75,6.667l4.583,-5.417Z" style="fill:#020202;stroke:#000;stroke-width:0.63px;"/><path d="M54.639,205.472c-1.25,-2.083 -2.5,-4.167 -3.75,-6.25l-10,-0.833c1.667,2.5 2.917,5.417 4.583,7.917l9.167,-0.833Z" style="fill:#020202;stroke:#000;stroke-width:0.63px;"/><path d="M122.139,240.056c-4.167,-2.083 -7.917,-4.583 -11.667,-7.083l-3.333,3.75c4.583,2.917 9.167,5.833 13.75,8.333l1.25,-5Z" style="fill:#020202;stroke:#000;stroke-width:0.63px;"/><path d="M117.139,216.306c-1.25,-0.833 -2.5,-2.083 -3.75,-3.333l-3.333,1.667c1.667,1.667 3.333,2.917 5,4.167l2.083,-2.5Z" style="fill:#020202;stroke:#000;stroke-width:0.63px;"/><path d="M45.472,156.722l9.167,4.583c-0.417,-1.25 -0.417,-2.5 -0.417,-3.333l-9.167,-5.417c0,1.25 0,2.917 0.417,4.167Z" style="fill:#020202;stroke:#000;stroke-width:0.63px;"/><path d="M102.139,238.806c-1.667,-1.25 -3.333,-2.5 -5,-3.75l-4.583,4.167c1.667,1.667 3.75,2.917 6.25,4.583l3.333,-5Z" style="fill:#020202;stroke:#000;stroke-width:0.63px;"/><path d="M125.472,231.722c-2.917,-1.667 -5.417,-3.333 -7.917,-5l-2.5,3.333c2.917,2.083 6.25,4.167 10,6.25l0.417,-4.583Z" style="fill:#020202;stroke:#000;stroke-width:0.63px;"/><path d="M113.389,223.806c-2.5,-1.667 -4.583,-3.75 -6.667,-5.417l-4.167,2.083c2.5,2.083 5.417,4.583 8.333,6.667l2.5,-3.333Z" style="fill:#020202;stroke:#000;stroke-width:0.63px;"/><path d="M106.306,229.639c-3.333,-2.5 -6.667,-5.417 -10,-8.333l-4.583,2.083c3.333,3.75 7.5,7.083 11.667,10.417l2.917,-4.167Z" style="fill:#020202;stroke:#000;stroke-width:0.63px;"/><path d="M82.139,137.972l5.417,6.25c0.833,-2.083 2.083,-4.167 3.75,-6.25l-4.583,-7.083c-1.667,2.083 -3.333,4.583 -4.583,7.083Z" style="fill:#020202;stroke:#000;stroke-width:0.63px;"/><path d="M90.472,126.722l4.167,7.083c1.667,-2.083 3.75,-4.167 5.833,-5.833l-3.333,-7.917c-2.5,2.083 -4.583,4.167 -6.667,6.667Z" style="fill:#020202;stroke:#000;stroke-width:0.63px;"/><path d="M45.056,146.722l9.167,5l0,-3.333l-8.75,-6.25c-0.417,1.25 -0.417,2.917 -0.417,4.583Z" style="fill:#020202;stroke:#000;stroke-width:0.63px;"/><path d="M95.056,147.972l4.167,5c0.833,-1.25 1.667,-2.917 2.5,-4.167l-3.333,-5.833c-1.25,1.667 -2.083,3.333 -3.333,5Z" style="fill:#020202;stroke:#000;stroke-width:0.63px;"/><path d="M102.556,214.639c-1.667,-2.083 -3.333,-3.75 -5,-5.833l-5,0.417c2.083,2.5 4.167,5 6.25,7.5l3.75,-2.083Z" style="fill:#020202;stroke:#000;stroke-width:0.63px;"/><path d="M110.472,112.139c-2.917,1.667 -6.25,3.333 -8.75,5l2.917,7.917c2.5,-1.667 5,-3.333 7.917,-4.583l-2.083,-8.333Z" style="fill:#020202;stroke:#000;stroke-width:0.63px;"/><path d="M109.639,209.222c-0.833,-0.833 -1.667,-2.083 -2.917,-3.333l-4.167,0.417c1.25,1.667 2.5,2.917 3.75,4.583l3.333,-1.667Z" style="fill:#020202;stroke:#000;stroke-width:0.63px;"/><path d="M72.972,118.806l5.833,7.917c2.083,-2.917 4.167,-5.417 6.667,-8.333l-5,-8.75c-2.917,2.917 -5.417,5.833 -7.5,9.167Z" style="fill:#020202;stroke:#000;stroke-width:0.63px;"/><path d="M52.972,113.389c-0.417,0.833 -0.833,2.083 -1.25,3.333l7.917,8.333c0.417,-1.25 1.25,-2.5 1.667,-3.75l-7.917,-8.75c0,0 0,0.417 -0.417,0.833Z" style="fill:#020202;stroke:#000;stroke-width:0.63px;"/><path d="M47.972,126.306l8.75,7.5c0.417,-1.25 0.833,-2.5 1.25,-3.75l-8.333,-7.917c-0.417,1.25 -1.25,2.917 -1.667,4.167Z" style="fill:#020202;stroke:#000;stroke-width:0.63px;"/><path d="M45.889,136.306l9.167,6.25c0,-1.25 0,-2.083 0.417,-3.333l-8.75,-7.5c-0.417,1.667 -0.417,2.917 -0.833,4.583Z" style="fill:#020202;stroke:#000;stroke-width:0.63px;"/><path d="M61.722,99.222l7.083,9.583c0.833,-1.25 1.667,-2.083 2.917,-3.333l-6.667,-10.417c-1.25,1.25 -2.083,2.5 -3.333,4.167Z" style="fill:#020202;stroke:#000;stroke-width:0.63px;"/><path d="M68.806,91.306l6.25,10.417c1.25,-1.25 2.083,-2.083 3.333,-3.333l-5.833,-10.833c-1.25,1.25 -2.5,2.5 -3.75,3.75Z" style="fill:#020202;stroke:#000;stroke-width:0.63px;"/><path d="M55.889,107.556l7.917,9.167c0.833,-1.25 1.25,-2.5 2.083,-3.333l-7.083,-10c-0.833,1.25 -2.083,2.917 -2.917,4.167Z" style="fill:#020202;stroke:#000;stroke-width:0.63px;"/><path d="M188.806,105.472l5.417,-9.583c-5,-2.5 -10.417,-4.167 -15.833,-5.833l-3.75,10c4.583,1.667 9.167,3.333 14.167,5.417Z" style="fill:#020202;stroke:#000;stroke-width:0.63px;"/><path d="M200.889,236.306c-2.5,1.25 -5,2.083 -7.917,3.333l6.667,4.167c0.417,0 0.833,0 1.25,-0.417l2.5,-6.25l-2.5,-0.833Z" style="fill:#020202;stroke:#000;stroke-width:0.63px;"/><path d="M224.639,164.639c1.25,2.917 2.5,5.833 3.333,8.75l4.167,-0.833l3.333,-7.5c-0.833,-1.25 -1.25,-2.917 -2.083,-4.167l-8.75,3.75Z" style="fill:#020202;stroke:#000;stroke-width:0.63px;"/><path d="M187.139,82.139c2.083,0.417 4.167,1.25 6.25,2.083l6.25,-11.667c-2.5,-0.833 -5,-1.667 -7.5,-2.5l-5,12.083Z" style="fill:#020202;stroke:#000;stroke-width:0.63px;"/><path d="M175.056,236.722l-5,-4.167c-1.667,0.417 -3.75,0.417 -5.417,0.417l3.75,4.167c2.083,0 4.583,-0.417 6.667,-0.417Z" style="fill:#020202;stroke:#000;stroke-width:0.63px;"/><path d="M186.722,136.722c-2.5,-1.667 -5.417,-3.333 -8.333,-4.583l-3.75,5.833c2.5,1.25 5,2.917 7.5,4.167l4.583,-5.417Z" style="fill:#020202;stroke:#000;stroke-width:0.63px;"/><path d="M204.222,89.222l7.5,-11.25c-0.417,0 -0.833,-0.417 -1.25,-0.417c-2.083,-1.25 -4.167,-2.083 -6.25,-2.917l-6.25,11.667c2.083,0.833 3.75,1.667 5.833,2.5l0.417,0.417Z" style="fill:#020202;stroke:#000;stroke-width:0.63px;"/><path d="M204.222,164.639c1.25,2.083 2.5,4.167 3.333,6.25l7.5,-2.5c-1.25,-2.5 -2.917,-5 -4.167,-7.5l-6.667,3.75Z" style="fill:#020202;stroke:#000;stroke-width:0.63px;"/><path d="M216.722,151.306c2.083,2.917 4.167,5.833 5.417,8.75l9.167,-3.75c-2.083,-3.333 -4.167,-6.667 -6.25,-10l-8.333,5Z" style="fill:#020202;stroke:#000;stroke-width:0.63px;"/><path d="M219.639,185.889l-7.917,1.667c0.417,2.083 0.417,4.167 0.417,6.25l7.5,-0.833c0.417,-2.5 0.417,-4.583 0,-7.083Z" style="fill:#020202;stroke:#000;stroke-width:0.63px;"/><path d="M178.389,112.139c-4.167,-1.667 -8.333,-2.917 -12.5,-3.75l-2.5,8.333c3.333,0.833 7.083,1.667 10.833,3.333l4.167,-7.917Z" style="fill:#020202;stroke:#000;stroke-width:0.63px;"/><path d="M209.639,175.889c0.417,2.083 1.25,4.167 1.667,6.25l7.5,-1.25c-0.417,-2.917 -1.25,-5.417 -2.083,-7.917l-7.083,2.917Z" style="fill:#020202;stroke:#000;stroke-width:0.63px;"/><path d="M205.056,213.806l7.083,1.667c1.25,-1.667 2.5,-3.75 3.333,-5.833l-7.917,-0.417c-0.833,1.667 -1.667,3.333 -2.5,4.583Z" style="fill:#020202;stroke:#000;stroke-width:0.63px;"/><path d="M219.222,198.389l-7.917,0.417c-0.417,1.667 -0.833,3.75 -1.25,5.417l7.5,0.833c0.833,-2.5 1.25,-4.583 1.667,-6.667Z" style="fill:#020202;stroke:#000;stroke-width:0.63px;"/><path d="M157.972,252.556c-4.167,-0.833 -8.75,-1.667 -12.917,-2.917l1.25,5.833c5,1.667 10,2.5 15,3.333l-3.333,-6.25Z" style="fill:#020202;stroke:#000;stroke-width:0.63px;"/><path d="M284.639,26.306l15.833,-17.5c-3.75,-2.5 -7.5,-5 -11.667,-7.5l-4.583,0l-12.5,17.083c4.583,2.5 8.75,5.417 12.917,7.917Z" style="fill:#020202;stroke:#000;stroke-width:0.63px;"/><path d="M158.806,293.389l2.5,10.417c3.75,1.25 7.917,2.083 11.667,2.5l1.25,-3.333l-2.917,-7.083c-4.167,-0.417 -8.333,-1.667 -12.5,-2.5Z" style="fill:#020202;stroke:#000;stroke-width:0.63px;"/><path d="M196.306,154.222c1.667,1.667 3.333,3.75 5,5.833l6.667,-3.333c-1.667,-2.5 -3.75,-5 -5.833,-7.083l-5.833,4.583Z" style="fill:#020202;stroke:#000;stroke-width:0.63px;"/><path d="M152.556,269.222c2.917,0.833 5.417,1.25 7.917,2.083l-3.333,-7.5c-2.083,-0.417 -4.167,-1.25 -6.25,-1.667l1.667,7.083Z" style="fill:#020202;stroke:#000;stroke-width:0.63px;"/><path d="M47.139,12.972l-5,-11.667l-14.583,0l10.417,18.75c2.917,-2.5 5.833,-4.583 9.167,-7.083Z" style="fill:#020202;stroke:#000;stroke-width:0.63px;"/><path d="M135.889,305.472l0.417,12.083c0.417,0 0.833,0.417 1.25,0.417l15.833,0l-1.667,-7.083c-5,-1.667 -10.417,-3.333 -15.833,-5.417Z" style="fill:#020202;stroke:#000;stroke-width:0.63px;"/><path d="M170.056,135.889l3.333,-5.833c-2.917,-1.25 -5.833,-2.5 -9.167,-3.333l-2.5,6.667c2.917,0.833 5.417,1.667 8.333,2.5Z" style="fill:#020202;stroke:#000;stroke-width:0.63px;"/><path d="M306.306,68.389c-3.333,-2.917 -6.25,-5.833 -9.583,-9.167l-15,13.333c0.417,0.417 0.833,0.833 0.833,0.833l17.083,0l6.667,-5Z" style="fill:#020202;stroke:#000;stroke-width:0.63px;"/><path d="M118.389,99.222c4.167,-1.25 8.333,-2.083 12.917,-2.917l0,-10.417c-5,0.417 -10,1.667 -14.583,2.917l1.667,10.417Z" style="fill:#020202;stroke:#000;stroke-width:0.63px;"/><path d="M149.222,62.139l-7.5,0l-0.833,12.917l6.667,0l1.667,-12.917Z" style="fill:#020202;stroke:#000;stroke-width:0.63px;"/><path d="M136.306,95.889c4.583,-0.417 9.167,-0.417 13.75,0l2.083,-10.417c-5.417,-0.417 -10.417,-0.417 -15.833,0l0,10.417Z" style="fill:#020202;stroke:#000;stroke-width:0.63px;"/><path d="M124.222,63.806c-2.083,0.417 -4.583,0.833 -6.667,1.25l1.667,12.917c1.667,-0.417 3.75,-0.833 5.417,-1.25l-0.417,-12.917Z" style="fill:#020202;stroke:#000;stroke-width:0.63px;"/><path d="M219.222,97.556c1.667,1.25 3.75,2.5 5.417,3.75l9.583,-10c-2.5,-1.25 -4.583,-2.917 -6.667,-4.167l-8.333,10.417Z" style="fill:#020202;stroke:#000;stroke-width:0.63px;"/><path d="M193.389,245.889l-6.667,-4.583c-2.917,0.417 -5.833,1.25 -9.167,1.25l5,5c3.75,-0.417 7.5,-0.833 10.833,-1.667Z" style="fill:#020202;stroke:#000;stroke-width:0.63px;"/><path d="M253.806,90.472c2.083,2.083 4.167,4.167 6.667,6.25l8.333,-6.667l2.5,-5.833c-2.083,-1.667 -3.75,-3.333 -5.833,-5l-11.667,11.25Z" style="fill:#020202;stroke:#000;stroke-width:0.63px;"/><path d="M167.556,259.639c5,0.833 10,0.833 15,0.833l-5.833,-6.25c-4.167,0 -8.333,-0.417 -12.5,-0.833l3.333,6.25Z" style="fill:#020202;stroke:#000;stroke-width:0.63px;"/><path d="M208.806,220.056l-7.5,-1.667c-1.25,1.25 -2.5,2.5 -3.75,3.333l6.667,2.5c1.667,-1.25 2.917,-2.917 4.583,-4.167Z" style="fill:#020202;stroke:#000;stroke-width:0.63px;"/><path d="M182.972,113.806l-4.167,7.917c1.25,0.833 2.5,1.25 3.75,1.667c2.5,1.25 4.583,2.5 6.667,3.333l5.417,-7.083c-2.083,-1.25 -4.583,-2.5 -7.083,-3.75c-1.667,-0.833 -2.917,-1.25 -4.583,-2.083Z" style="fill:#020202;stroke:#000;stroke-width:0.63px;"/><path d="M187.556,233.389l-5.833,-2.917c-1.667,0.417 -3.333,0.833 -5,1.25l5,3.75c2.083,-0.417 4.167,-1.25 5.833,-2.083Z" style="fill:#020202;stroke:#000;stroke-width:0.63px;"/><path d="M206.306,115.056l7.5,-8.75c-4.583,-2.917 -9.583,-5.833 -14.583,-8.333l-5.833,9.583c4.583,2.083 8.75,4.583 12.917,7.5Z" style="fill:#020202;stroke:#000;stroke-width:0.63px;"/><path d="M191.306,56.722c2.917,0.833 5.833,2.083 8.75,2.917l7.083,-14.167c-3.333,-1.25 -6.667,-2.5 -10.417,-3.333l-5.417,14.583Z" style="fill:#020202;stroke:#000;stroke-width:0.63px;"/><path d="M204.639,61.306c2.917,1.25 5.833,2.5 8.75,3.75l8.333,-13.75c-3.333,-1.25 -6.667,-2.917 -10,-4.167l-7.083,14.167Z" style="fill:#020202;stroke:#000;stroke-width:0.63px;"/><path d="M177.556,53.389c2.917,0.417 5.833,1.25 8.75,2.083l5.833,-14.583c-3.333,-1.25 -7.083,-2.083 -10.417,-2.5l-4.167,15Z" style="fill:#020202;stroke:#000;stroke-width:0.63px;"/><path d="M230.472,73.806c2.5,1.667 5.417,3.333 7.917,5l10.833,-12.083c-2.917,-2.083 -5.833,-3.75 -9.167,-5.833l-9.583,12.917Z" style="fill:#020202;stroke:#000;stroke-width:0.63px;"/><path d="M242.556,81.722c2.5,1.667 5,3.75 7.083,5.417l12.083,-11.25c-2.917,-2.083 -5.417,-4.167 -8.333,-6.25l-10.833,12.083Z" style="fill:#020202;stroke:#000;stroke-width:0.63px;"/><path d="M217.972,67.139c2.5,1.25 5.417,2.917 7.917,4.167l9.583,-12.917c-2.917,-1.667 -5.833,-3.333 -9.167,-5l-8.333,13.75Z" style="fill:#020202;stroke:#000;stroke-width:0.63px;"/><path d="M193.389,259.639l2.917,-6.667l-0.833,-0.833c-4.167,0.833 -7.917,1.667 -12.083,1.667l5.833,6.25c1.25,0 2.917,-0.417 4.167,-0.417Z" style="fill:#020202;stroke:#000;stroke-width:0.63px;"/><path d="M210.472,117.556c4.167,3.333 7.917,6.25 11.25,9.583l9.167,-7.083c-4.167,-3.75 -8.333,-7.5 -12.917,-10.833l-7.5,8.333Z" style="fill:#020202;stroke:#000;stroke-width:0.63px;"/><path d="M225.472,130.889c3.333,3.333 6.667,7.083 9.167,10.833l10.417,-5.833c-3.333,-4.167 -6.667,-8.333 -10.417,-12.5l-9.167,7.5Z" style="fill:#020202;stroke:#000;stroke-width:0.63px;"/><path d="M193.389,129.639c3.333,2.083 6.25,4.167 9.167,6.667l7.083,-6.25c-3.333,-2.5 -6.667,-5 -10.417,-7.5l-5.833,7.083Z" style="fill:#020202;stroke:#000;stroke-width:0.63px;"/><path d="M213.806,147.556l7.917,-5c-2.5,-3.333 -5.417,-6.25 -8.333,-9.167l-7.083,6.25c2.5,2.5 5,5 7.5,7.917Z" style="fill:#020202;stroke:#000;stroke-width:0.63px;"/><path d="M241.306,151.722l4.583,-10.833l-8.333,5c1.25,2.083 2.5,3.75 3.75,5.833Z" style="fill:#020202;stroke:#000;stroke-width:0.63px;"/><path d="M229.222,178.389l0,0.417l0.417,-0.417l-0.417,0Z" style="fill:#020202;stroke:#000;stroke-width:0.63px;"/><path d="M199.222,227.972l-6.667,-2.5c-1.667,0.833 -2.917,1.667 -4.583,2.5l5.833,2.917c1.667,-0.833 3.75,-1.667 5.417,-2.917Z" style="fill:#020202;stroke:#000;stroke-width:0.63px;"/><path d="M228.806,104.222c1.667,1.25 3.333,2.917 5,4.167l10.417,-9.167c-2.083,-1.667 -4.167,-3.333 -6.25,-5l-9.167,10Z" style="fill:#020202;stroke:#000;stroke-width:0.63px;"/><path d="M237.556,111.722c1.667,1.667 3.333,2.917 5,4.583l10.833,-8.333c-1.667,-1.667 -3.333,-3.75 -5.417,-5.417l-10.417,9.167Z" style="fill:#020202;stroke:#000;stroke-width:0.63px;"/><path d="M182.139,80.472l5,-12.083c-2.5,-0.833 -5,-1.25 -7.5,-2.083l-4.167,12.5c2.083,0.417 4.583,1.25 6.667,1.667Z" style="fill:#020202;stroke:#000;stroke-width:0.63px;"/><path d="M245.889,120.056c1.25,1.667 2.917,2.917 4.167,4.583l4.583,-2.917l3.75,-8.333c-0.417,-0.833 -0.833,-1.25 -1.25,-1.667l-11.25,8.333Z" style="fill:#020202;stroke:#000;stroke-width:0.63px;"/><path d="M208.806,91.306c2.083,1.25 4.167,2.5 5.833,3.333l8.333,-10.417c-2.083,-1.25 -4.583,-2.5 -6.667,-3.75l-7.5,10.833Z" style="fill:#020202;stroke:#000;stroke-width:0.63px;"/><path d="M186.306,145.056c2.083,1.667 4.167,3.75 6.25,5.417l5.833,-4.583c-2.083,-2.083 -4.583,-4.167 -7.5,-6.25l-4.583,5.417Z" style="fill:#020202;stroke:#000;stroke-width:0.63px;"/><path d="M37.556,92.139l9.583,10.417c0.833,-1.667 1.667,-3.333 2.917,-5l-9.167,-11.667c-1.25,2.083 -2.5,4.167 -3.333,6.25Z" style="fill:#020202;stroke:#000;stroke-width:0.63px;"/><path d="M63.389,22.972l6.667,16.667c2.917,-1.667 5.417,-2.917 8.333,-4.583l-5.417,-17.5c-3.333,1.667 -6.667,3.333 -9.583,5.417Z" style="fill:#020202;stroke:#000;stroke-width:0.63px;"/><path d="M50.056,31.722l8.333,15.833c2.5,-1.667 4.583,-3.333 7.5,-5l-7.083,-17.083c-2.917,2.083 -5.833,4.167 -8.75,6.25Z" style="fill:#020202;stroke:#000;stroke-width:0.63px;"/><path d="M38.389,41.722l9.167,15c2.083,-2.083 4.583,-3.75 6.667,-5.833l-8.333,-16.25c-2.5,2.5 -5,4.583 -7.5,7.083Z" style="fill:#020202;stroke:#000;stroke-width:0.63px;"/><path d="M82.972,48.806l5,14.583c2.083,-1.25 4.167,-2.083 6.25,-3.333l-3.75,-14.583c-2.5,0.833 -5,2.083 -7.5,3.333Z" style="fill:#020202;stroke:#000;stroke-width:0.63px;"/><path d="M92.972,9.639l4.167,17.917c3.333,-0.833 6.667,-1.667 10,-2.5l-2.5,-18.75c-4.167,1.25 -7.917,2.083 -11.667,3.333Z" style="fill:#020202;stroke:#000;stroke-width:0.63px;"/><path d="M27.972,52.972l10.417,14.167c2.083,-2.5 3.75,-4.583 5.833,-6.667l-9.583,-15c-2.083,2.083 -4.583,4.583 -6.667,7.5Z" style="fill:#020202;stroke:#000;stroke-width:0.63px;"/><path d="M77.556,15.472l5.417,17.5c2.917,-1.25 6.25,-2.5 9.167,-3.75l-3.75,-17.917c-3.75,1.25 -7.5,2.5 -10.833,4.167Z" style="fill:#020202;stroke:#000;stroke-width:0.63px;"/><path d="M25.889,87.139c0.417,-1.25 1.25,-2.917 2.083,-4.167l-11.25,-13.333c-0.833,2.083 -2.083,4.167 -2.917,6.25c-0.417,0.417 -0.833,1.25 -1.25,2.083l12.083,12.083c0.417,-0.833 0.833,-2.083 1.25,-2.917Z" style="fill:#020202;stroke:#000;stroke-width:0.63px;"/><path d="M3.806,106.306l12.917,9.167c0.417,-2.5 0.833,-5 1.667,-7.5l-12.5,-10.833c-0.833,2.917 -1.667,6.25 -2.083,9.167Z" style="fill:#020202;stroke:#000;stroke-width:0.63px;"/><path d="M2.139,121.306l13.333,7.5c0,-2.5 0,-5 0.417,-7.5l-12.917,-9.583c-0.417,3.333 -0.833,6.25 -0.833,9.583Z" style="fill:#020202;stroke:#000;stroke-width:0.63px;"/><path d="M7.139,91.722l12.917,10.833c0.417,-2.5 1.25,-5 2.5,-7.5l-12.083,-12.083c-1.25,2.917 -2.083,5.833 -3.333,8.75Z" style="fill:#020202;stroke:#000;stroke-width:0.63px;"/><path d="M2.139,27.139l12.917,16.667c2.083,-2.917 4.583,-5.833 7.083,-8.75l-11.667,-17.917c-2.917,3.333 -5.833,6.667 -8.333,10Z" style="fill:#020202;stroke:#000;stroke-width:0.63px;"/><path d="M13.806,13.389l11.667,17.917c2.5,-2.917 5.417,-5.417 8.333,-7.917l-10.417,-19.167c-3.333,2.917 -6.667,5.833 -9.583,9.167Z" style="fill:#020202;stroke:#000;stroke-width:0.63px;"/><path d="M108.806,80.889c1.667,-0.833 3.75,-1.25 5.417,-1.667l-1.667,-12.917c-2.083,0.833 -4.167,1.25 -6.25,2.083l2.5,12.5Z" style="fill:#020202;stroke:#000;stroke-width:0.63px;"/><path d="M209.222,30.472c3.75,1.25 7.5,2.5 11.25,4.167l9.167,-17.083c-4.583,-1.667 -8.75,-3.333 -12.917,-4.583l-7.5,17.5Z" style="fill:#020202;stroke:#000;stroke-width:0.63px;"/><path d="M159.639,20.472c4.167,0.417 7.917,0.417 11.667,1.25l4.167,-18.75c-4.583,-0.417 -8.75,-0.833 -13.333,-1.25l-2.5,18.75Z" style="fill:#020202;stroke:#000;stroke-width:0.63px;"/><path d="M192.972,25.472c3.75,1.25 7.5,2.083 11.25,3.333l7.5,-17.5c-4.167,-1.25 -8.75,-2.5 -12.917,-3.75l-5.833,17.917Z" style="fill:#020202;stroke:#000;stroke-width:0.63px;"/><path d="M163.806,51.306c2.917,0 5.833,0.417 8.75,1.25l4.167,-15.417c-3.333,-0.417 -6.667,-0.833 -10,-1.25l-2.917,15.417Z" style="fill:#020202;stroke:#000;stroke-width:0.63px;"/><path d="M176.306,22.139c3.75,0.833 7.917,1.667 11.667,2.5l5.833,-18.333c-4.583,-0.833 -8.75,-1.667 -13.333,-2.5l-4.167,18.333Z" style="fill:#020202;stroke:#000;stroke-width:0.63px;"/><path d="M234.222,19.639l-9.167,16.667c2.917,1.25 5.417,2.5 8.333,3.75c0.833,0.417 1.667,0.833 2.5,1.25l10.833,-15.833c-1.25,-0.833 -2.5,-1.25 -3.333,-1.667c-2.917,-1.667 -6.25,-2.917 -9.167,-4.167Z" style="fill:#020202;stroke:#000;stroke-width:0.63px;"/><path d="M2.139,136.306l13.333,6.25c-0.417,-2.5 -0.417,-5 -0.417,-7.917l-13.333,-7.5c0,2.917 0,6.25 0.417,9.167Z" style="fill:#020202;stroke:#000;stroke-width:0.63px;"/><path d="M109.639,5.472l2.083,18.333c3.75,-0.833 7.083,-1.667 10.833,-2.083l-0.833,-18.75c-4.167,0.833 -8.333,1.667 -12.083,2.5Z" style="fill:#020202;stroke:#000;stroke-width:0.63px;"/><path d="M123.389,51.722c2.917,-0.417 5.417,-0.833 8.333,-0.833l0,-15.417c-3.333,0 -6.25,0.417 -9.583,0.833l1.25,15.417Z" style="fill:#020202;stroke:#000;stroke-width:0.63px;"/><path d="M110.889,54.639c2.5,-0.833 5,-1.25 7.5,-1.667l-1.25,-15.417c-2.917,0.417 -5.833,1.25 -8.75,1.667l2.5,15.417Z" style="fill:#020202;stroke:#000;stroke-width:0.63px;"/><path d="M127.556,21.306c3.333,-0.417 7.083,-0.833 10.833,-1.25l0.833,-18.75c-4.167,0.417 -8.333,0.833 -12.5,1.25l0.833,18.75Z" style="fill:#020202;stroke:#000;stroke-width:0.63px;"/><path d="M144.222,1.306l-0.833,18.75l11.25,0l2.5,-18.75l-12.917,0Z" style="fill:#020202;stroke:#000;stroke-width:0.63px;"/><path d="M150.056,50.056c2.917,0 5.833,0.417 8.75,0.417l2.917,-15.417c-3.333,0 -6.667,-0.417 -10,-0.417l-1.667,15.417Z" style="fill:#020202;stroke:#000;stroke-width:0.63px;"/><path d="M136.722,50.472c2.5,-0.417 5.417,-0.417 8.333,-0.417l1.25,-15.417c-2.917,0 -6.25,0 -9.583,0.417l0,15.417Z" style="fill:#020202;stroke:#000;stroke-width:0.63px;"/><path d="M15.056,208.806c-2.5,-4.167 -4.583,-8.333 -6.667,-12.083l-7.083,-0.417l0,12.5c0,0.417 0.417,0.833 0.417,1.25l13.333,-1.25Z" style="fill:#020202;stroke:#000;stroke-width:0.63px;"/><path d="M267.139,15.889l10.833,-14.583l-20,0l-4.167,7.083c4.583,2.5 9.167,5 13.333,7.5Z" style="fill:#020202;stroke:#000;stroke-width:0.63px;"/><path d="M252.139,1.306l-15,0c4.167,1.667 7.917,3.333 12.083,5l2.917,-5Z" style="fill:#020202;stroke:#000;stroke-width:0.63px;"/><path d="M333.389,70.056c0.833,1.25 1.667,2.5 2.5,3.333l20.833,0l7.083,-3.75c-2.917,-4.583 -6.667,-8.75 -10,-13.333l-20.417,13.75Z" style="fill:#020202;stroke:#000;stroke-width:0.63px;"/><path d="M158.806,277.139c-2.917,-0.417 -5.833,-1.25 -8.75,-2.083l1.667,8.75c3.333,0.833 6.667,1.667 10.417,2.5l-3.333,-9.167Z" style="fill:#020202;stroke:#000;stroke-width:0.63px;"/><path d="M66.722,1.722c0,0 0.417,-0.417 0.833,-0.417l-1.25,0l0.417,0.417Z" style="fill:#020202;stroke:#000;stroke-width:0.63px;"/><path d="M178.806,280.472l2.917,5.417l2.5,-5c-1.667,0 -3.333,-0.417 -5.417,-0.417Z" style="fill:#020202;stroke:#000;stroke-width:0.63px;"/><path d="M5.889,57.556c2.083,-3.333 3.75,-6.25 5.833,-9.167l-10.417,-14.167l0,17.917l4.583,5.417Z" style="fill:#020202;stroke:#000;stroke-width:0.63px;"/><path d="M62.139,4.222l-1.25,-2.917l-13.333,0l3.75,8.75c3.75,-2.083 7.083,-4.167 10.833,-5.833Z" style="fill:#020202;stroke:#000;stroke-width:0.63px;"/><path d="M168.806,315.056c-3.75,-0.833 -7.5,-1.667 -11.667,-2.917l1.25,5.833l9.583,0l0.833,-2.917Z" style="fill:#020202;stroke:#000;stroke-width:0.63px;"/><path d="M1.306,180.472l0,10.417l4.583,0.417c-1.667,-3.333 -3.333,-7.083 -4.583,-10.833Z" style="fill:#020202;stroke:#000;stroke-width:0.63px;"/><path d="M240.472,43.806c3.333,2.083 7.083,3.75 10.417,5.833l12.083,-15.417c-3.75,-2.083 -7.917,-4.583 -11.667,-6.667l-10.833,16.25Z" style="fill:#020202;stroke:#000;stroke-width:0.63px;"/><path d="M2.139,64.639c0.417,-0.833 0.833,-1.667 1.25,-2.5l-2.083,-2.5l0,7.5c0,-0.833 0.417,-1.667 0.833,-2.5Z" style="fill:#020202;stroke:#000;stroke-width:0.63px;"/><path d="M155.889,302.556l-2.917,-10.833c-4.167,-0.833 -8.333,-2.083 -12.5,-3.75l0.417,10c5,1.667 10,3.333 15,4.583Z" style="fill:#020202;stroke:#000;stroke-width:0.63px;"/><path d="M20.472,170.472c-0.833,-2.5 -1.667,-5.417 -2.083,-7.917l-13.333,-5c0.833,3.333 1.667,6.667 2.5,9.583l12.917,3.333Z" style="fill:#020202;stroke:#000;stroke-width:0.63px;"/><path d="M146.306,282.139l-1.667,-8.75c-2.917,-0.833 -5.833,-1.667 -8.75,-2.917l0,8.333c3.333,1.25 7.083,2.083 10.417,3.333Z" style="fill:#020202;stroke:#000;stroke-width:0.63px;"/><path d="M40.056,241.722c-3.333,-3.75 -6.667,-7.5 -10,-11.667l-12.083,2.917c3.75,5 7.5,9.583 11.667,13.75l10.417,-5Z" style="fill:#020202;stroke:#000;stroke-width:0.63px;"/><path d="M46.722,263.806l8.75,-6.667c-4.167,-3.75 -7.917,-7.5 -11.667,-11.25l-10.417,5c4.167,4.167 8.75,8.75 13.333,12.917Z" style="fill:#020202;stroke:#000;stroke-width:0.63px;"/><path d="M31.722,197.972c-1.25,-2.5 -2.917,-5.417 -4.167,-7.917l-12.083,-1.667c1.25,3.333 2.917,6.25 4.583,9.583l11.667,0Z" style="fill:#020202;stroke:#000;stroke-width:0.63px;"/><path d="M17.139,156.722c-0.417,-2.917 -0.833,-5.417 -1.25,-7.917l-13.333,-6.667c0.417,3.333 0.833,6.667 1.25,9.583l13.333,5Z" style="fill:#020202;stroke:#000;stroke-width:0.63px;"/><path d="M25.472,184.222c-1.25,-2.5 -2.083,-5.417 -3.333,-7.917l-12.917,-3.333c1.25,3.333 2.5,6.667 3.75,10l12.5,1.25Z" style="fill:#020202;stroke:#000;stroke-width:0.63px;"/><path d="M14.639,228.806l12.083,-3.333c-2.917,-3.75 -5.833,-7.917 -8.333,-12.083l-13.75,1.25c3.333,5 6.667,9.583 10,14.167Z" style="fill:#020202;stroke:#000;stroke-width:0.63px;"/><path d="M72.556,270.889c-4.583,-3.333 -8.75,-6.667 -12.917,-10.417l-9.167,6.667c5,4.167 10,8.333 15.417,12.083l6.667,-8.333Z" style="fill:#020202;stroke:#000;stroke-width:0.63px;"/><path d="M135.472,286.306c-4.167,-1.667 -8.333,-3.333 -12.5,-5.417l-1.667,9.167c5,2.5 9.583,4.167 14.583,6.25l-0.417,-10Z" style="fill:#020202;stroke:#000;stroke-width:0.63px;"/><path d="M116.722,287.972l1.25,-9.167c-3.75,-2.083 -7.917,-4.167 -11.667,-6.25l-3.333,8.333c4.167,2.5 8.75,4.583 12.917,6.667c0.278,0.278 0.556,0.417 0.833,0.417Z" style="fill:#020202;stroke:#000;stroke-width:0.63px;"/><path d="M130.889,303.389c-5,-2.083 -10.417,-4.167 -15.417,-6.667l-2.5,10.833c5.833,2.917 12.083,5.417 17.917,7.917l0,-12.083Z" style="fill:#020202;stroke:#000;stroke-width:0.63px;"/><path d="M110.472,294.639c-5,-2.917 -10,-5.417 -15,-8.333l-4.583,9.583c5.417,3.333 11.25,6.667 17.5,9.583l2.083,-10.833Z" style="fill:#020202;stroke:#000;stroke-width:0.63px;"/><path d="M90.889,283.389c-4.583,-2.917 -9.583,-5.833 -14.167,-9.167l-6.667,8.333c5,3.75 10.833,7.5 16.25,10.833l4.583,-10Z" style="fill:#020202;stroke:#000;stroke-width:0.63px;"/><path d="M130.056,228.389c0.417,0 0.417,0.417 0.833,0.417c2.083,0.833 3.75,1.667 5.417,2.5l-0.833,-4.167c-1.25,-0.417 -2.5,-0.833 -3.75,-1.667c-0.417,0 -0.833,-0.417 -1.25,-0.417l-0.417,3.333Z" style="fill:#020202;stroke:#000;stroke-width:0.63px;"/><path d="M85.472,77.972l5,11.667c1.25,-0.833 2.5,-1.667 4.167,-2.5l-3.75,-12.083c-1.667,0.833 -3.75,1.667 -5.417,2.917Z" style="fill:#020202;stroke:#000;stroke-width:0.63px;"/><path d="M84.222,105.889l5,9.167c2.5,-2.5 5.833,-5 8.75,-7.083l-3.333,-9.583c-3.75,2.083 -7.083,4.583 -10.417,7.5Z" style="fill:#020202;stroke:#000;stroke-width:0.63px;"/><path d="M26.306,127.556l10.833,7.083c0,-1.667 0.417,-3.75 0.833,-5.417l-10.833,-8.75c-0.417,2.5 -0.833,4.583 -0.833,7.083Z" style="fill:#020202;stroke:#000;stroke-width:0.63px;"/><path d="M101.306,70.056c-2.083,0.833 -3.75,1.667 -5.833,2.5l3.75,12.083c1.667,-0.833 3.333,-1.25 5,-2.083l-2.917,-12.5Z" style="fill:#020202;stroke:#000;stroke-width:0.63px;"/><path d="M99.222,95.472l3.333,10c3.333,-1.667 7.083,-3.333 10.833,-5l-1.667,-10.417c-4.167,1.667 -8.75,3.333 -12.5,5.417Z" style="fill:#020202;stroke:#000;stroke-width:0.63px;"/><path d="M71.306,55.472l6.25,13.75c2.083,-1.25 3.75,-2.5 5.833,-3.333l-5,-14.583c-2.5,1.25 -4.583,2.5 -7.083,4.167Z" style="fill:#020202;stroke:#000;stroke-width:0.63px;"/><path d="M95.472,43.389l3.75,15c2.083,-0.833 4.583,-1.667 6.667,-2.5l-2.5,-15c-2.5,0.833 -5.417,1.667 -7.917,2.5Z" style="fill:#020202;stroke:#000;stroke-width:0.63px;"/><path d="M32.139,103.389l10,9.583c0.833,-2.083 1.667,-3.75 2.5,-5.417l-9.583,-10.833c-1.25,2.083 -2.083,4.583 -2.917,6.667Z" style="fill:#020202;stroke:#000;stroke-width:0.63px;"/><path d="M19.639,65.056l11.25,12.917c1.25,-2.083 2.917,-4.583 4.583,-6.667l-10.417,-14.167c-2.083,2.5 -3.75,5 -5.417,7.917Z" style="fill:#020202;stroke:#000;stroke-width:0.63px;"/><path d="M40.472,117.972l-10,-9.583c-0.833,2.5 -1.667,4.583 -2.083,6.667l10.417,8.333c0.417,-1.667 1.25,-3.75 1.667,-5.417Z" style="fill:#020202;stroke:#000;stroke-width:0.63px;"/><path d="M51.722,71.722l8.333,12.5c1.25,-1.667 2.917,-2.917 4.167,-4.583l-7.083,-12.917c-1.667,1.667 -3.333,3.333 -5.417,5Z" style="fill:#020202;stroke:#000;stroke-width:0.63px;"/><path d="M61.306,62.972l7.083,13.333c1.667,-1.25 3.333,-2.917 5,-4.167l-6.25,-13.75c-2.083,1.667 -4.167,2.917 -5.833,4.583Z" style="fill:#020202;stroke:#000;stroke-width:0.63px;"/><path d="M43.806,81.722l9.167,11.25c0.833,-1.667 2.083,-3.333 3.333,-4.583l-7.917,-12.5c-1.667,1.667 -2.917,3.75 -4.583,5.833Z" style="fill:#020202;stroke:#000;stroke-width:0.63px;"/><path d="M76.722,84.222l5.417,10.833c1.25,-0.833 2.5,-1.667 3.75,-2.5l-4.583,-11.667c-1.667,0.833 -3.333,2.083 -4.583,3.333Z" style="fill:#020202;stroke:#000;stroke-width:0.63px;"/><path d="M139.639,237.972c-3.333,-1.25 -6.25,-2.5 -9.167,-3.75l-0.833,4.167c3.75,1.667 7.5,3.333 11.25,4.583l-1.25,-5Z" style="fill:#020202;stroke:#000;stroke-width:0.63px;"/><path d="M158.389,247.139l-3.333,-5c-3.333,-0.833 -6.667,-1.25 -9.583,-2.5l1.25,5c3.75,1.25 7.5,2.083 11.667,2.5Z" style="fill:#020202;stroke:#000;stroke-width:0.63px;"/><path d="M148.389,235.056l-2.083,-4.167c-1.667,-0.417 -3.333,-0.833 -5.417,-1.667l0.833,4.167c2.5,0.417 4.583,1.25 6.667,1.667Z" style="fill:#020202;stroke:#000;stroke-width:0.63px;"/><path d="M145.056,123.806c-2.917,-0.417 -5.833,0 -8.75,0l-0.417,7.083c2.5,-0.417 5.417,-0.417 7.917,-0.417l1.25,-6.667Z" style="fill:#020202;stroke:#000;stroke-width:0.63px;"/><path d="M130.889,124.639c-2.5,0.417 -5.417,1.25 -7.917,2.083l1.25,6.667c2.083,-0.833 4.583,-1.25 6.667,-1.667l0,-7.083Z" style="fill:#020202;stroke:#000;stroke-width:0.63px;"/><path d="M113.806,137.972c1.667,-0.833 3.75,-2.083 5.417,-2.917l-0.833,-6.667c-2.5,0.833 -4.583,2.083 -6.667,3.333l2.083,6.25Z" style="fill:#020202;stroke:#000;stroke-width:0.63px;"/><path d="M143.389,105.472c-4.167,0 -8.333,0.417 -12.083,0.833l0.417,8.75c3.333,-0.417 6.667,-0.833 10.417,-0.833l1.25,-8.75Z" style="fill:#020202;stroke:#000;stroke-width:0.63px;"/><path d="M130.056,75.889c1.667,0 3.75,-0.417 5.833,-0.417l0.833,-12.917c-2.5,0 -5,0.417 -7.5,0.417l0.833,12.917Z" style="fill:#020202;stroke:#000;stroke-width:0.63px;"/><path d="M157.972,232.972c-2.083,-0.417 -3.75,-0.417 -5.417,-0.833l2.5,4.167c2.083,0.417 4.167,0.417 6.667,0.833l-3.75,-4.167Z" style="fill:#020202;stroke:#000;stroke-width:0.63px;"/><path d="M117.139,118.806c3.333,-1.25 6.25,-2.083 9.583,-2.917l-0.417,-8.75c-3.75,0.833 -7.5,2.083 -10.833,3.333l1.667,8.333Z" style="fill:#020202;stroke:#000;stroke-width:0.63px;"/><path d="M147.139,114.222c3.75,0.417 7.5,0.833 11.25,1.25l2.5,-8.333c-4.167,-0.833 -8.333,-1.25 -12.5,-1.25l-1.25,8.333Z" style="fill:#020202;stroke:#000;stroke-width:0.63px;"/><path d="M159.222,125.472c-2.917,-0.833 -5.833,-1.25 -9.167,-1.25l-1.25,6.667c2.5,0 5.417,0.417 7.917,1.25l2.5,-6.667Z" style="fill:#020202;stroke:#000;stroke-width:0.63px;"/><path d="M152.556,75.472c2.083,0 4.167,0 6.25,0.417l2.917,-12.917c-2.5,0 -5,-0.417 -7.5,-0.417l-1.667,12.917Z" style="fill:#020202;stroke:#000;stroke-width:0.63px;"/><path d="M86.722,260.056c-3.333,-2.5 -6.667,-5 -10,-7.5l-7.083,5.833c3.75,2.917 7.917,5.833 11.667,8.75l5.417,-7.083Z" style="fill:#020202;stroke:#000;stroke-width:0.63px;"/><path d="M130.889,268.389c-2.917,-1.25 -5.833,-2.5 -8.75,-3.75l-1.667,7.5c3.333,1.667 7.083,2.917 10.417,4.583l0,-8.333Z" style="fill:#020202;stroke:#000;stroke-width:0.63px;"/><path d="M147.139,267.972l-2.083,-7.5c-2.083,-0.417 -4.167,-1.25 -6.25,-2.083l0.417,7.083c2.5,0.833 5.417,1.667 7.917,2.5Z" style="fill:#020202;stroke:#000;stroke-width:0.63px;"/><path d="M174.222,273.389l-4.583,-7.917c-2.083,0 -4.167,-0.417 -6.25,-0.833l3.333,7.5c2.5,0.417 5,0.833 7.5,1.25Z" style="fill:#020202;stroke:#000;stroke-width:0.63px;"/><path d="M139.639,247.556c-4.167,-1.25 -8.333,-2.917 -12.083,-5l-0.833,0l-0.833,5l0,0.417c5,2.083 10,4.167 15,5.833l-1.25,-6.25Z" style="fill:#020202;stroke:#000;stroke-width:0.63px;"/><path d="M133.806,256.306c-2.5,-0.833 -4.583,-1.667 -6.667,-2.5l-0.833,6.25c2.5,1.25 5,2.083 7.5,3.333l0,-7.083Z" style="fill:#020202;stroke:#000;stroke-width:0.63px;"/><path d="M177.972,289.222l-5,-9.583c-2.917,0 -5.833,-0.833 -8.333,-1.25l3.333,9.167c3.333,0.417 6.667,1.25 10,1.667Z" style="fill:#020202;stroke:#000;stroke-width:0.63px;"/><path d="M175.889,248.389l-5,-5.417c-2.917,0.417 -6.25,0 -9.583,0l3.333,5c3.75,0.417 7.5,0.417 11.25,0.417Z" style="fill:#020202;stroke:#000;stroke-width:0.63px;"/><path d="M288.806,29.222c4.167,3.333 8.333,6.25 12.5,9.583l17.5,-16.667c-4.583,-3.75 -9.167,-7.083 -14.167,-10.417l-15.833,17.5Z" style="fill:#020202;stroke:#000;stroke-width:0.63px;"/><path d="M268.806,62.139c3.333,2.083 6.25,4.583 9.167,7.083l15,-13.333c-3.333,-2.5 -6.667,-5.417 -10.417,-8.333l-13.75,14.583Z" style="fill:#020202;stroke:#000;stroke-width:0.63px;"/><path d="M187.139,273.806l0.417,-0.417l-5.833,-7.083l-5.833,0l4.583,7.5l6.667,0Z" style="fill:#020202;stroke:#000;stroke-width:0.63px;"/><path d="M305.056,41.722c3.75,3.333 7.5,6.667 11.25,10l19.167,-15c-4.167,-3.75 -8.333,-7.5 -12.917,-11.25l-17.5,16.25Z" style="fill:#020202;stroke:#000;stroke-width:0.63px;"/><path d="M338.806,40.472l-18.75,15c3.333,3.75 6.667,7.083 10,10.833l20.417,-13.75c-3.75,-4.167 -7.5,-8.333 -11.667,-12.083Z" style="fill:#020202;stroke:#000;stroke-width:0.63px;"/><path d="M37.139,157.972c0,-1.667 -0.417,-3.75 -0.417,-5.833l-11.25,-5.833c0.417,2.5 0.417,4.583 0.833,7.083l10.833,4.583Z" style="fill:#020202;stroke:#000;stroke-width:0.63px;"/><path d="M28.806,212.972l10.833,-1.25c-1.667,-2.917 -3.333,-5.833 -5,-8.333l-11.667,-0.417c1.667,3.333 3.75,6.667 5.833,10Z" style="fill:#020202;stroke:#000;stroke-width:0.63px;"/><path d="M49.222,224.639c-2.083,-2.917 -4.167,-5.417 -6.25,-8.333l-10.833,1.25c2.5,3.333 5,6.667 7.5,10l9.583,-2.917Z" style="fill:#020202;stroke:#000;stroke-width:0.63px;"/><path d="M43.389,182.139c-0.833,-2.083 -1.667,-4.167 -2.083,-6.25l-10.833,-3.333c0.417,2.5 1.25,5 2.5,7.5l10.417,2.083Z" style="fill:#020202;stroke:#000;stroke-width:0.63px;"/><path d="M60.472,237.139c-2.917,-2.5 -5.417,-5.417 -7.5,-8.333l-10,2.917c2.917,3.333 5.833,6.667 8.75,10l8.75,-4.583Z" style="fill:#020202;stroke:#000;stroke-width:0.63px;"/><path d="M39.639,170.056c-0.417,-2.083 -0.833,-4.167 -1.25,-6.25l-11.25,-4.583c0.417,2.5 1.25,5 1.667,7.5l10.833,3.333Z" style="fill:#020202;stroke:#000;stroke-width:0.63px;"/><path d="M122.556,251.306c-2.083,-0.833 -4.167,-2.083 -6.25,-3.333l-2.083,5.833c2.083,1.25 4.583,2.5 7.083,3.75l1.25,-6.25Z" style="fill:#020202;stroke:#000;stroke-width:0.63px;"/><path d="M25.472,140.472l10.833,5.833c0,-2.083 0,-3.75 0.417,-5.833l-11.25,-7.083l0,7.083Z" style="fill:#020202;stroke:#000;stroke-width:0.63px;"/><path d="M112.139,245.472c-2.083,-1.25 -3.75,-2.5 -5.833,-3.75l-3.75,5c2.5,1.667 4.583,2.917 7.083,4.583l2.5,-5.833Z" style="fill:#020202;stroke:#000;stroke-width:0.63px;"/><path d="M96.722,249.639l-4.583,5.833c2.917,2.083 6.25,4.167 9.167,6.25l3.333,-6.667c-2.5,-1.667 -5.417,-3.75 -7.917,-5.417Z" style="fill:#020202;stroke:#000;stroke-width:0.63px;"/><path d="M72.972,248.806c-3.333,-2.5 -6.25,-5 -8.75,-7.917l-8.75,4.583c3.333,3.333 7.083,6.25 10.417,9.583l7.083,-6.25Z" style="fill:#020202;stroke:#000;stroke-width:0.63px;"/><path d="M117.556,262.139c-2.917,-1.25 -5.833,-2.917 -8.333,-4.583l-3.333,6.667c3.333,2.083 6.667,3.75 10,5.417l1.667,-7.5Z" style="fill:#020202;stroke:#000;stroke-width:0.63px;"/><path d="M101.722,270.056c-3.75,-2.5 -7.083,-4.583 -10.833,-7.083l-5.417,7.083c4.167,2.917 8.75,5.833 12.917,8.333l3.333,-8.333Z" style="fill:#020202;stroke:#000;stroke-width:0.63px;"/><path d="M255.056,52.556c3.333,2.083 6.667,4.167 9.583,6.25l13.75,-14.167c-3.333,-2.5 -7.083,-5 -10.833,-7.5l-12.5,15.417Z" style="fill:#020202;stroke:#000;stroke-width:0.63px;"/></g></svg>